<?xml version="1.0" encoding="UTF-8"?>
<svg id="Layer_1" data-name="Layer 1" xmlns="http://www.w3.org/2000/svg" viewBox="0 0 618.95 617.15">
  <defs>
    <style>
      .cls-1 {
        fill: #e5579f;
      }

      .cls-1, .cls-2, .cls-3, .cls-4 {
        stroke-width: 0px;
      }

      .cls-2 {
        fill: #733f98;
      }

      .cls-3 {
        fill: #e7bad7;
      }

      .cls-4 {
        fill: #231f20;
      }
    </style>
  </defs>
  <path class="cls-4" d="m2.41,5c3.22,0,3.22-5,0-5s-3.22,5,0,5h0Z"/>
  <path class="cls-2" d="m442.46,370.12c.33,2.14,2.14,2.39,3.5,2.98,2.03.88,2.04,1.82.71,3.43-4.38,5.26-4.32,5.25-1.27,11.53,3.89,8,6.44,16.55,8.37,25.31.74,3.35.64,6.74-.36,10.16-1.91,6.54-.31,13.13.2,19.68.54,7.04.14,13.98-1.13,20.91-.53,2.85-1.38,2.44-2.95.86-5.37-5.36-10.66-10.83-16.5-15.6-1.47-1.2-1.81-2.62-1.57-4.48,1.19-9.36.85-18.74.1-28.11-.36-4.48-.07-8.92.6-13.33-1.74-.34-1.54.97-1.71,1.7-.72,3.1-.83,6.26-.61,9.45.62,8.85.9,17.71.07,26.55-.17,1.8.52,4.5-3.14,4.65,3.18,2.69,6.04,4.84,8.62,7.34,7.62,7.38,15.21,14.8,22.67,22.38,3.75,3.81,7.64,4.65,12.32,2.28,4.57-2.32,9-5.37,14.44-4.52,1.37.21,2.93-.35,4.17,1.36-3.31,1.12-6.75,1.26-10.48,3.56,5.07,1.63,9.86.67,14.11,2.54,4.14,1.83,7.98,4.2,10.84,8.26-5.63-2.89-11.11-6.05-17.64-6.1.4,1.27,1.33,1.37,2.09,1.39,5.97.18,10.37,4.1,15.03,7.39.73.52,1.98,1.09,1.22,2.38-.59.98-1.78,1-2.65.43-2.08-1.36-4.09-2.84-6.09-4.35-2.2-1.67-4.59-2-7.19-1.38,4.93,1.19,8.75,4.32,12.28,8.17-5.66-.02-10-5.62-16.33-4.14,3.48,2.32,7.29,3.87,9.07,8.06-1.47.65-2.31-.45-3.09-1.06-5.36-4.17-11.34-5.77-17.86-5.73-5.31.03-10.11-1.65-14.85-4.55-12.92-7.89-26.25-15-37.85-25.23-1.3-1.14-2.95-1.82-4.47-2.66-2.59-1.43-4.3-3.7-4.34-6.83-.14-9.35-2.42-18.27-4.12-27.33-2.13-11.35-.16-22.96-1.17-34.41-.12-1.4.29-2.88-.55-4.32-1.4,1.34-1.06,3.02-1.06,4.49.08,15.56-1.11,31.21,3.45,46.43,1.39,4.63,1.55,9.63,1.49,14.54-.03,3.16.91,6.11,3.43,7.43,7.73,4.08,13.95,10.57,21.28,15.24,4.4,2.8,8.86,5.5,13.38,8.07,2.07,1.17,2.39,2.35,1.41,4.69-4,9.56-4.63,19.07.83,28.38,1.29,2.2.71,4.91,1.05,7.37,1.15,8.24,2.37,16.46,4.12,24.57,2.26,10.47.14,20.73-.9,31.06-.15,1.51-.86,2.06-2.23,1.75-7.95-1.77-15.42.38-22.81,3.26-2.29.89-4.61,1.58-7.04,2-7.3,1.26-13.64-.63-19.28-5.93-6.09-5.73-12.48-4.88-16.9,2.44-1.94,3.21-3.72,4.36-7.36,3.53-4.72-1.08-9.65-1.12-14.49-1.58-2.36-.23-4.56.32-6.7,1.45-2.29,1.21-4.64,2.31-7.01,3.33-5.06,2.19-5.74,3.16-4.33,8.81.66,2.64-.26,2.76-2.03,2.53-3.69-.48-5.47-3.77-3.63-7.94-1.91,1.45-4.71.29-3.49,4.66.67,2.39-2.04,5.88-3.97,7.22-1.9,1.31-4.87-.63-6.55-2.99-2.84-4-2.24-9.79,1.44-13.22,2.12-1.97,4.42-3.72,6.69-5.49,3.69-2.88,7-6.1,9.11-10.61,2.17-4.62,5.67-6.12,10.34-5.2,5.26,1.04,10.34,2.87,15.68,3.58,10.2,1.34,20.12-.29,30-2.64,8.47-2.01,15.81.72,22.63,6.02,1.17.91,1.39,2.37,2.4,3.73.87-5.33.45-10.35-.58-15.21-2.43-11.39-3.17-23-4.2-34.57-.35-3.97-1.45-7.19-4.21-10.1-7.11-7.49-9.84-17.14-7.33-27.28,3.64-14.73.72-28.48-2.74-42.47-3.67-14.87-6.27-29.94-4.65-45.46.53-5.11,1.15-10.26,2.25-15.25,1.41-6.4,6.02-10.39,10.36-14.44,4.97-4.64,10.43-8.71,14.33-14.59,1.3-1.96,3.39-3.78,1.23-6.58-.22-.28-.09-1.05.08-1.5,2.46-6.52,2.21-13.52,2.72-20.32.21-2.74-.27-5.21,1.6-7.63,3.62-4.72,8.23-6.95,13.69-7.64,7.8-.97,13.32,3.62,18.51,8.93,2.15,2.2,4.71,3.71,7.12,5.48,1.72,1.26,2.63,2.65,1.11,4.88-1.43,2.1-.98,4.54-.62,6.9.45,2.95.4,5.74-1.42,8.29-1.93,2.71-.22,5.63,0,8.42.23,2.96,1.8,6.37-3.19,5.94-1.01-.09-1.42.77-1.34,1.89.3,3.88-1.92,6.55-3.87,9.33-1.06,1.51-2.48,1.36-3.98,1-3.84-.93-7.29-2.87-10.74-4.82-1.82-1.03-3.48-2.45-5.6-2.76,0,0-.19-.15-.19-.15l.24.1Zm-9.35,21.33c2.04-7.06-1.05-14.32-6.62-15.4,4.82,3.93,5.53,9.31,6.62,15.4Zm-101.97,209.93c-.04.08-.08.16-.11.23.14,0,.29,0,.43,0-.03-.08-.05-.18-.11-.23-.04-.04-.14,0-.21-.01Z"/>
  <path class="cls-1" d="m571.55,609.91c.83,2.26,2.97,2.98,4.45,4.47.6.61,1.55,1.23.91,2.25-.42.67-1.48.66-2.02.18-6.41-5.6-14.74-6.67-21.67-11.02-2.84-1.78-4.49-4.7-4.73-8.09-1.03-15.02-2.91-30.33.1-45.03,2.59-12.63,2.4-25.44,4.6-38,1.13-6.48,2.54-12.93,2.18-19.61-.1-1.82.05-3.71-1.12-5.35-1.46,1-.77,2.46-.72,3.6.35,8.56-1.54,16.79-2.94,25.09-.37,2.18-1.55,2.36-2.83,1.29-4.62-3.87-9.39-3.24-14.47-1.25-3.46,1.35-7.21,1.37-10.82.77-5.57-.92-11.16-.48-16.74-.56-4.96-.08-9.71-1.84-14.68-1.74-1.95.04-3.17-1.11-2.36-3.67.42-1.32.66-2.8-.35-4.84-1.78,3.72-1.82,7.35-1.94,10.85-.41,12.16,1.43,24.22,1.41,36.4-.02,11.03-1.03,21.88-2.6,32.71-.51,3.56-.33,7.12-.44,10.68-.29,9.06-7.19,14.51-15.23,12.17-11.05-3.22-22.48-3.98-33.73-5.99-9.21-1.64-18.44-3.22-27.81-3.39-7.21-.13-14.32.65-21.22,2.95-7.51,2.49-15.34,2.37-22.98,3.71-1.28.22-2.52.11-2.42-1.91.18-3.59,4.85-9.59,8.21-9.28,8.39.79,12.49-5.51,16.74-11.34,4.65-6.38,9.45-7.35,15.13-2.16,7.04,6.43,15.05,7.41,23.66,5.16,5.78-1.51,11.29-4.01,17.22-5.02,6.31-1.08,11.94,1.72,17.81,3.14,1.47.35.9,2.32,2.09,3.39,1.09-2.62.79-5.26.3-7.68-1.16-5.76-2.23-11.53-3.84-17.22-1.74-6.18-1.93-12.86-3.3-19.19-1.95-9.02-3.21-18.13-4.3-27.3-.18-1.53-.78-3.06-1.41-4.47-3.57-7.92-2.99-15.81-.12-23.76.84-2.33,2.06-3.33,4.08-1.63,7.57,6.4,16.81,6.32,25.62,7.63,3.41.51,6.27,1.76,9.08,3.63,1.13.75,2.35,1.37,3.55,2,.87.46,1.83,1.1,2.63-.02.68-.95.43-1.97-.14-2.94-.42-.72-1.32-1.29-.83-2.4.68-.5,1.12.11,1.61.4,4.82,2.76,9.7.26,11.02-5.49.41-1.77.09-3-1.07-4.25-5.79-6.28-12.55-10.08-21.61-9.76,4.46-1.93,8.04-1.86,11.89-.06,3.96,1.85,7.9,3.89,12.17,4.93,9.82,2.4,18.43-1.91,26.95-6.05,8.33-4.06,15.9-9.62,23.16-15.64.95-.79,2.01-1.52,3.13-1.97,1.34-.54,2.56-.56,2.97,1.59.47,2.46,2.06,4,4.04,5.3,3,1.97,6.06,3.9,8.36,6.94,3.61,4.76,4.27,10.17,3.03,15.96-2.47,11.48-6.45,22.41-10.69,33.21-2.72,6.91-4.29,13.94-4.47,21.46-.31,13.18-4.48,25.63-6.57,38.48-.06.39-.21.77-.25,1.16-.91,8.2-.67,10.99,9.22,13.24,6.8,1.55,12.79,5.12,17.31,11.2,1.22,1.65.23,3.66,1.21,5.42.4.72-1.24.66-1.98.33-1.87-.83-3.03-2.62-4.39-4.11-2.93-3.2-6.49-4.9-10.64-5.44,4.52,2.15,8.76,4.71,11.91,8.91.64.86,2.66,1.49,1.23,2.98-.97,1.01-2.2.11-3.06-1.07-1.69-2.33-3.89-3.94-6.51-4.82-1.62-1.8-3.53-2.89-6.61-3.1,2.36,2.04,4.26,3.15,6.64,3.05Zm10.93-.79c.09.07.17.14.26.21-.1-.05-.2-.11-.3-.16-.24-.26-.49-.53-.73-.79-.09-.06-.19-.12-.28-.17.11.04.21.09.32.13.24.26.49.53.73.79Zm-2.92-3.17c.02.1.03.22.07.31.03.05.13.05.2.08-.1-.11-.21-.23-.31-.34-.24-.27-.48-.53-.73-.8-2.45-3.49-6.19-3.19-9.32-4.66-.13.38-.26.76-.39,1.15,3.25,1.16,6.5,2.32,9.75,3.48.24.26.49.53.73.79Z"/>
  <path class="cls-1" d="m591.96,536.87c-1.62,3.05-3.72,5.86-3.87,9.96-1.81-1.13-2.74-2.71-2.34-4.57,1.2-5.66-1.19-10.14-3.98-14.32-3.26-4.89-5.76-9.82-6.34-16.1-.49-5.34,2.42-9.27,3.32-13.97.79-4.12,1.87-8.13,2.25-12.38.81-9.04-3.32-14.81-9.84-19.18-6.16-4.13-6.52-4.62-4.2-12.07,2.6-8.32,6.72-15.8,11.52-22.84,1.48-2.17,3.41-3.89,5.79-4.63,8.46-2.61,17.05-3.45,25.23.69,7.35,3.71,8.44,9.49,3.35,16.29-3.6,4.81-7.49,9.34-10.81,14.42-5.73,8.74-7.06,18.07-3.91,28.16,2.13,6.81,1.68,13.2-1.85,19.37-3.9,6.81-6.19,14.06-4.19,22.22.74,3.03.06,6.02-.19,9.02l.04-.06Z"/>
  <path class="cls-1" d="m569.16,524.78c1.6,9.62,1.03,18.33-.26,27.05-.99,6.63-3.34,12.98-3.4,19.79-.04,4.66.77,5.66,4.92,5.96,3.84.28,7.64,1.04,11.55.12,4.08-.96,7.56,1.55,10.9,3.55,1.81,1.08,1.61,4.02,1.17,5.75-.46,1.78-2.7,1.45-4.18.8-3.68-1.62-7.33-2.75-11.2-.7.1.24.14.52.29.68.8.85,2.79.88,2.25,2.58-.53,1.67-2.4,1.45-3.52.97-5.28-2.24-10.98-1.94-16.39-3.45-2.5-.7-3.09-1.77-2.54-4.42,2.2-10.54,4.32-21.1,6.32-31.68.95-5.04,1.06-10.2,1.2-15.34.11-3.84.84-7.48,2.9-11.65Z"/>
  <path class="cls-1" d="m486.29,598.75c.62-6.77,1.04-13.18,1.83-19.54,1.34-10.87,1.92-21.74,1.17-32.71-.56-8.15-.79-16.32-1.13-24.49-.07-1.71-.24-3.81,2.22-3.47,1.99.27,4.65-.32,4.77,3.34.78,23.6,1.76,47.21-3.19,70.49-.66,3.09-2.19,5.41-5.67,6.38Z"/>
  <path class="cls-1" d="m618.95,449.32c-.25,1.29-.28,2.68-.79,3.82-1.6,3.57-1.77,7.05-.17,10.65,1.05,2.37.63,4.14-2.02,4.62-1.17.22-1.52,1.1-1.85,2.14-1.01,3.09-3.03,5.24-5.36,7.23-1.3,1.11-2.43,1.45-3.98,1.05-6.71-1.76-7.87-4.03-5.65-11.2,2.39-7.72,7.31-13.59,12.02-19.63,1.25-1.61,2.41-3.3,3.64-4.93.57-.76.69-2.25,1.95-1.94.99.24.85,1.5,1.05,2.34.45,1.91.77,3.85,1.16,5.84Z"/>
  <path class="cls-1" d="m591.93,536.93c2.76-4.05,1.9-8.63,1.24-12.97-.81-5.34.74-9.83,2.92-14.33,1.19-2.45,2.2-4.99,3.29-7.49,2.07-4.75,2.51-9.59.81-14.61-.46-1.36-.71-2.8-1.06-4.2-.39-1.51-1.34-3.32-.33-4.53,1.16-1.38,2.6.38,3.93.64,4.28.81,5.76,2.72,5.61,8.21-.22,8.42-1.9,15.41-7.33,21.55-3.56,4.03-4.88,9.33-4.65,14.98.19,4.66.28,9.29-2.9,13.09-.87,1.04-1.32,1.15-1.49-.41,0,0-.04.06-.04.06Z"/>
  <path class="cls-2" d="m475.17,471.35c-4.42.04-8.5,1.07-12.52,2.57-4.05,1.51-8.93-2.99-8.33-7.64.19-1.53.46-3.05.86-5.66,5.14,8.09,11.51,12.02,19.99,10.74Z"/>
  <path class="cls-1" d="m462.3,476.43c3.71-2.58,6.84-3.33,11.48-2.87-2.48,3.68-7.27,5-11.48,2.87Z"/>
  <path class="cls-2" d="m504.48,489.56c-.14.33-.22.53-.31.73-.23-.16-.49-.3-.66-.51-.05-.06.16-.52.2-.51.26.05.51.19.77.3Z"/>
  <path class="cls-3" d="m433.11,391.45c-1.09-6.09-1.8-11.47-6.62-15.4,5.57,1.07,8.66,8.33,6.62,15.4Z"/>
  <polygon class="cls-3" points="442.46 370.12 442.22 370.02 442.42 370.17 442.46 370.12"/>
  <path class="cls-2" d="m422.14,379.89c.19,0,.41.06.6.04-.69.05-.22-.03.06.04.33.08.65.25.98.32-.63-.13-.27-.11-.06,0,.18.09.35.19.52.29.22.13.64.55.88.6-.3-.23-.35-.27-.14-.1.08.07.16.13.24.2.12.1.24.21.36.32.32.29.63.6.92.92.54.57,1.04,1.18,1.53,1.79.07.09.14.18.21.27-.2-.26-.24-.31-.13-.17.12.16.24.32.36.48.24.32.48.64.72.96.5.68.99,1.35,1.5,2.02.97,1.28,1.95,2.57,3.17,3.63.82.7,2.06,1.02,3.03.39.89-.57,1.53-1.76,1.15-2.82-.55-1.55-1.42-2.85-2.34-4.2-.75-1.1-1.35-2.23-1.88-3.45-1.02-2.36-2.04-4.94-3.92-6.78-.94-.91-2.61-1-3.54,0s-1,2.56,0,3.54c.1.1.53.44.54.59,0-.09-.28-.4-.08-.09.08.13.17.25.25.37.32.48.6.99.87,1.5.57,1.1,1.06,2.25,1.56,3.39s1.05,2.23,1.75,3.27c.38.56.77,1.11,1.14,1.68.2.31.39.62.56.94.07.13.13.26.19.38.31.62-.16-.46.07.19l4.18-2.43c-.58-.5-1.1-1.05-1.6-1.64-.24-.28-.47-.56-.69-.85-.44-.55.16.22-.1-.13-.13-.18-.26-.35-.4-.53-1.11-1.49-2.19-3.01-3.37-4.45-2.32-2.84-5.28-5.33-9.11-5.46-1.31-.04-2.56,1.18-2.5,2.5.06,1.39,1.1,2.45,2.5,2.5h0Z"/>
</svg>