<?xml version="1.0" encoding="UTF-8"?>
<svg id="Layer_1" data-name="Layer 1" xmlns="http://www.w3.org/2000/svg" viewBox="0 0 1429.72 584.81">
  <defs>
    <style>
      .cls-1 {
        fill: #e7bad7;
      }

      .cls-1, .cls-2, .cls-3, .cls-4 {
        stroke-width: 0px;
      }

      .cls-2 {
        fill: #95c2e8;
      }

      .cls-3 {
        fill: #d88aba;
      }

      .cls-4 {
        fill: #283b97;
      }
    </style>
  </defs>
  <path class="cls-1" d="m.11,496.26c.07,0,.17-.03.21.01.06.05.07.15.11.23-.14,0-.29,0-.43,0,.04-.08.08-.16.11-.23Z"/>
  <path class="cls-1" d="m1192.73,580.01c-3.25-1.16-6.5-2.32-9.75-3.48.13-.38.26-.76.39-1.15,3.13,1.48,6.87,1.18,9.32,4.66,0,0,.04-.04.04-.04Z"/>
  <path class="cls-1" d="m1185.45,584.77c-2.38.09-4.28-1.02-6.64-3.05,3.08.21,4.99,1.3,6.61,3.1,0,0,.03-.04.03-.04Z"/>
  <path class="cls-1" d="m1193.46,580.8c-.24-.26-.49-.53-.73-.79,0,0-.04.04-.04.04.24.27.48.53.73.8l.04-.04Z"/>
  <path class="cls-1" d="m1193.42,580.84c.1.11.21.23.31.34-.07-.03-.17-.03-.2-.08-.05-.09-.05-.2-.07-.31,0,0-.04.04-.04.04Z"/>
  <path class="cls-1" d="m1195.65,583.18c-.11-.04-.21-.09-.32-.13.09.06.19.12.28.17,0,0,.04-.04.04-.04Z"/>
  <path class="cls-1" d="m1196.38,583.97c-.24-.26-.49-.53-.73-.79,0,0-.04.04-.04.04.24.26.49.53.73.79l.04-.05Z"/>
  <path class="cls-1" d="m1196.34,584.02c.1.05.2.11.3.16-.09-.07-.17-.14-.26-.21,0,0-.04.05-.04.05Z"/>
  <g>
    <path class="cls-3" d="m1227.7,89.17c3.38-8.86,6.8-17.67,10.12-26.62,1.43-3.86,2.68-7.97,3.97-12.03.36-1.12.85-2.73.12-3.65-.7-.87-1.49.06-2.05,1.23-.19.39-.34.87-.48,1.33-4.92,15.94-11.08,30.15-16.61,45.25-.7,1.92-1.5,2.85-2.75,3.07-11.47,2.08-22.97,3.91-34.31,7.98-13.89,4.99-27.41,12.13-39.69,26.21-3.67,4.21-7.51,5.59-11.74,4.24-1.92-.62-3.93-.21-5.9-.21-.69,0-1.4.06-1.93,1.66.92,1.48,2.01.65,2.97.89,2.99.74,5.99,1.52,8.99,1.95,2.75.4,5.28-1.55,7.61-4.14,17.52-19.54,36.84-26.59,56.57-30.71,12.07-2.52,24.16-4.6,36.13-8.59,4.62-1.54,9.01.51,12.99,4.96,3.1,3.47,4.61,9.75,6.06,15.83,1.99,8.37,2.57,17.47,3.47,26.41,3.26,32.45,8.72,63.57,15.2,94.08,4.28,20.13,8.64,40.19,13.38,59.93,3.22,13.39,8.1,24.13,14.43,32.35,2.83,3.68,6.05,5.82,9.29,7.56,12.33,6.64,24.89,11.11,37.58,14.2,1.32.32,2.67.06,4,.24,1.4.19,2.6,1.26,3.27,3.84.47,1.82.4,3.67-.1,5.48-.56,2.01-1.44,1.12-2.24,1.01-3.01-.42-6.02-.86-9.03-1.24-.64-.08-1.43.1-1.45,1.6-.01,1.25.78,1.39,1.31,1.5,2.86.6,5.72,1.1,8.58,1.69.77.16,1.6.42,1.79,2.26.17,1.65.08,3.24-.59,4.54-.49.95-.89,1.36-1.63.59-3.04-3.18-6.43-2.3-9.7-2.84-.55-.09-1.3.32-1.33,1.48-.04,1.44.78,1.29,1.3,1.42,2.15.54,4.32.99,6.47,1.49.85.2,1.68.56,2.29,1.82.68,1.41.65,2.91.02,4.39-.7,1.65-1.24,1.13-1.82-.34-.53-1.35-1.36-1.99-2.18-2.35-2.62-1.17-5.31-.88-7.98-1.18-.54-.06-1.23.16-1.24,1.58,0,1.24.66,1.31,1.11,1.42,1.6.42,3.2.77,4.8,1.01,1.05.16,2.12.19,3.09,1.1.75.7,1.22,1.87,1.22,3.54,0,1.75-.7,2.58-1.34,3.41-1,1.31-1.12-.81-1.56-1.6-.76-1.37-1.67-1.93-2.66-2.25-2.17-.71-4.35-.57-6.52-.28-.74.1-1.85.19-1.77,1.99.08,1.74,1.18,1.41,1.93,1.45,1.62.08,3.24-.02,4.85.2,1.06.15,2.52-.23,2.69,2.72.18,3.05-1.06,4.79-2.23,6.3-.33.43-.81.6-1.21.59-4.1-.15-8.09,1.68-12.12,2.67-4.48,1.1-8.89-.11-13.06-3.06-4.49-3.18-9.13-4.32-13.8-5.16-3.22-.58-6.44-1.28-9.59-2.6-4.04-1.69-6.76-6.48-8.49-13.9-1.99-8.59-3.46-17.51-5.06-26.35-2.87-15.77-8.14-28.82-13.01-42.29-7.26-20.08-15.92-38.07-23.16-58.19-4.5-12.53-8.79-25.32-10.65-40.5-1.38-11.26-1.52-22.63-.97-34.09.29-6.04-.11-11.96-.97-17.76-.19-1.3-.46-2.57-.77-3.79-.31-1.26-.82-2.68-1.58-2.06-.86.69-.77,2.42-.42,3.88.94,3.92,1.02,8.12,1.24,12.32.16,2.99-.42,4.78-1.6,6.45-5.86,8.28-12.36,14.11-19.22,18.26-12.62,7.65-24.51,18.14-35.61,32.12-4.82,6.07-9.82,11.78-15.46,14.7-9.53,4.93-18.72,1.87-27.59-5.36-8.65-7.05-16.63-16.54-24.27-27.01-8.07-11.06-17.35-14.18-26.82-16.26-2.03-.45-4.05.7-6,1.93-.93.59-1.47.25-1.63-1.74-1.17-14.72-5.85-25.61-10.57-36.52-3.79-8.77-7.36-17.88-11.16-26.62-1.75-4.02-2.68-8.93-4.27-13.09-1.97-5.15-3.9-5.99-6.56-2.07-1.04,1.53-1.18-.18-1.6-.93-2.32-4.13-4.67-4.11-6.37.17-.72,1.81-1.01,3.82-.73,6.14.26,2.23.68,4.43.49,8.03-1.63-8.34-2.79-16.39-8.09-17.06,1.24-5.13,3.17-8.93,4.49-13.49,1.33-4.61,3.01-8.87,4.68-13.08,1.53-3.88,3.62-5.8,6.22-5.77,5.74.07,10.53,4.46,15.12,11.68-2.95,2.29-5.68,4.04-8.13,6.96-.47.56-1.37.98-.92,2.59.38,1.36,1.05.9,1.66.25,9.44-10.05,19.78-11.03,29.99-8.62,12.42,2.94,24.81,3.12,37.24,2.83,4.78-.11,9.57-.11,14.32,1.13,7.26,1.9,13.71,7.63,19.67,15.71.86,1.17,1.69,2.49,2.61,3.44.54.56,1.34,1.73,1.85.08.43-1.39-.1-2.61-.69-3.47-2.3-3.37-4.58-6.88-7.18-9.28-1.7-1.56-1.27-2.43-.13-4.18,14-21.47,28.95-39.86,45.19-54.41,7.91-7.09,16.06-13.06,23.97-20.17,4.22-3.8,8.19-8.41,12.16-13.05,2.89-3.37,5.81-6.79,9.2-7.89,7.2-2.34,12.75,3.99,15.48,17.38,2.24,10.98,2.89,22.69,4.21,34.09.51,4.38.98,8.77,1.55,13.12.26,1.95,0,2.51-.99,2.11-5.53-2.24-10.38,1.59-15.1,6.46-4.42,4.57-8.37,10.48-12.27,16.51-.1-.32-.2-.64-.3-.96Zm66.3,290.41c.57-.07,1.25-.12,1.44-1.28.22-1.36-.35-2.33-.89-2.94-2.66-3.01-3.91-7.92-4.97-13.2-.56-2.77-1.29-5.42-2.01-8.05-.24-.88-.63-2.1-1.31-1.24-.55.71-.38,1.74-.16,2.86.88,4.43,1.67,8.92,2.51,13.37.72,3.8,1.92,6.91,3.65,9.22.52.69,1.05,1.38,1.73,1.25Zm-183.93-243.98c-.11-1.36-.6-1.73-1.22-1.72-5.12.06-9.7,2.68-13.17,10.48-.42.94-1.26,2.1-.61,3.41.7,1.42,1.4.19,1.95-.97,2.23-4.66,4.98-7.39,8.2-8.38,1.24-.38,2.5-.65,3.75-.92.62-.13,1.09-.49,1.09-1.9Zm-.35-29.27c.63.07,1.26.19,1.89.2.43,0,.87-.13.9-1.24.02-.89-.17-1.74-.61-1.94-1.78-.81-3.58-1.31-5.4-.51-.37.16-.85.75-.72,1.67.06.46.51.92.81,1.03,1.03.35,2.08.54,3.13.79Z"/>
    <path class="cls-3" d="m944.29,72.16c4.97,4.41,9.97,8.78,14.5,14.71,5.98,7.83,11.99,15.73,16.76,26.44,2.68,6.02,4.52,13.1,6.19,20.33,1,4.32,1.21,8.62.23,13.04-.17.74-.22,1.59-.39,2.32-.29,1.24-.07,2.22.44,2.81.78.9,1.01-.57,1.17-1.48.56-3.19,1.39-2.93,2.81-1.69,3.8,3.32,7.82,5.24,12.18,5.35-.47,2.91-1.7,4.5-2.39,6.77-.45,1.47-1.9,2.86-.84,4.71,1.08,1.88,1.65-.99,2.22-2.19,4.14-8.77,7.77-18.27,10.86-28.54,1.24-4.13,2.72-7.93,4.41-11.42,1.33-2.75,2.97-4.56,4.75-5.93,2.99-2.32,3.21-2.07,3.96,3.99.25,1.97.5,3.94.75,5.95-4.79.11-6.45,4.82-4.94,13.55.6,3.48,1.06,7.06,1.7,10.51.25,1.34.03,2.34-.13,3.51-1.05,7.73-.35,14.66,2.2,21.13,1.52,3.87,2.75,8.23,3.91,12.56,1.18,4.38,2.91,7.06,5.3,8.71,4.44,3.05,8.81,6.42,13.2,9.72.63.47,1.39.61,1.86,2.17-4.65,3.92-9.29,7.69-14.07,10.82-.94.62-1.82,1.35-2.64,2.45-6.94,9.35-13.28,20.15-19.64,30.87-5.13,8.64-8.05,20.07-10.54,32.07-3.42,16.48-5.44,33.76-7.96,50.75-1.96,13.19-3.52,26.64-6.68,39.06-.31,1.22-.57,2.49-.88,3.71-3.39,13.11-6.61,16.27-13.95,13.16-10.92-4.63-21.6-10.91-32.18-17.85-8.19-5.37-16.57-9.38-24.94-13.51-8.92-4.41-17.61-10.31-26.38-15.66-2.52-1.53-4.35-4.53-5.77-8.94-2.28-7.09-4.36-14.27-5.07-22.64-.15-1.74-.52-3.94.49-4.78,1.16-.96,1.97.84,2.5,2.72.43,1.54,1.04,3.24,1.02,4.85-.1,6.67,2.63,9.88,4.4,14.26.26.66.65,1.18,1.09.55.49-.7.5-1.78.1-2.49-2.8-4.95-3.88-11.54-5-18.26-.54-3.26-1.88-5.68-4.1-4.7-1.02.45-2.65-4.78-2.18-6.62.45-1.72,1.03-1.2,1.75-.57,3.19,2.79,5.33,7.57,6.68,13.58,1.33,5.92,4,9.32,6.22,13.59.24.45.55.92.9.21.28-.58.29-1.23.05-1.84-.26-.64-.55-1.24-.84-1.82-2.23-4.48-4.56-8.63-5.84-14.72-1.03-4.93-3.22-8.5-5.58-11.55.83-1.56,1.74-1.1,2.35-.16,1.97,3.03,4.4,5.14,5.76,9.43,1.82,5.76,4.22,10.4,7,14.18-.42,2.29-2.63,2.03-1.98,4.2.69,2.3,1.91-.5,2.88-1.08,1.07-.64,2.07-1.69,3.11-2.5.74-.57,1.43-1.18,1.44-3.02-.15-.15-.31-.42-.39-.36-4.99,3.74-6.88-4.19-9.3-9.59-1.23-2.74-2.18-5.98-3.56-8.54-.4-.74-1.26-1.16-.75-2.85.46-1.52,1.17-1.32,1.86-.94,1.3.72,2.51,1.83,3.48,3.69,1.2,2.3,2.48,4.5,3.47,7.11,2.29,6.01,5.3,9.53,9.06,10.81.55.19,1.09.5,1.63.8.12.07.21.33.4.64-.99,1.9-2.09,3.63-2.63,6.21-.29,1.37-.9,1-1.45.84-3.86-1.15-7.3,1.99-10.85,4.01-.45.26-1.05.75-.88,1.9.17,1.18.85.89,1.27.71,1.92-.8,3.84-1.61,5.72-2.7,2.96-1.72,5.54-.68,7.85,3.26.31.54.64,1.1,1.01,1.46.5.49,1.12,1.05,1.53-.07.31-.85,0-1.83-.32-2.59-.22-.52-.48-1-.74-1.45-1.96-3.38-1.98-4.41-.08-8.1,2.33-4.52,1.86-8.18-1.29-10.29-2.07-1.38-3.71-3.86-4.82-7.52-.71-2.34-.71-4.81.26-6.82,1.08-2.22,1.91.13,2.74,1.02,1.91,2.04,3.74,4.36,5.97,4.93.89.22,1.61,1.16,2.11,2.5,1.72,4.64,3.38,9.37,5.07,14.05,1.04,2.87,1.04,5.63.13,8.74-1.27,4.33-1.16,4.27,1.36,5.78,8.03,4.82,16.31,5.66,24.61,5.75,7.75.09,15.46.79,23.1,3.3,1.17.39,2.39.76,3.47,1.65,1.98,1.63,2.76.11,3.29-3.47,1.2-8.12,2.1-16.37,2.98-24.62,1.78-16.62,3.72-33.19,5.01-50.01.4-5.23.16-10.38-.24-15.43-1.33-16.81,1.03-31.79,5.57-45.85,1.49-4.61,3.02-9.18,4.5-13.81.37-1.18,1.03-2.51,0-3.81-.93-1.17-1.56-.53-2.12,1.05-.67,1.9-1.36,3.77-2.08,5.74-4.9-8.26-10.61-13.62-16.38-19.04,5.43-2.44,9.68-7.64,13.16-15.37.32-.72.64-1.45.91-2.24.2-.56.34-1.22.05-1.86-.3-.66-.68-.45-.94-.06-.72,1.06-1.43,2.17-2.09,3.38-3.43,6.25-7.1,11.71-12.01,12.51-2.23.37-4.49.15-6.74.27-.65.03-1.13-.51-1.4-1.48-1.85-6.69-5.07-8.72-8.61-9.32-2.68-.45-4.54-2.43-6.04-7.04-1.28-3.96-3.25-7.12-4.97-10.53-4.36-8.63-6.62-18.77-6.05-31,.04-.95.5-2.49-.35-2.69-.95-.23-.77,1.73-.83,2.7-.76,11.75,1.03,22.05,4.95,30.98,1.46,3.31,3.1,6.31,4.64,9.5.75,1.55,1.43,3.2,2.2,4.91-12.68.87-21.62,11.86-26.86,34.88-1.13-6.9-2.11-13.58-1.47-20.16.96-9.81-.34-19.11-.73-28.65-.63-15.51-.55-31.09,4.7-44.06,2.63-6.49,5.08-13.27,7.94-19.4.61-1.31,1.26-4.13,2.52-.97.35.87.88-.38,1.32-.66,2.12-1.33,3.57-.8,5.13,2.19-7.72.43-11.08,10.48-13.72,22.32-1.62,7.28-2.05,15.29-3.84,22.43-.18.71-.13,1.37.2,1.79.46.59.79.04,1.04-.69.75-2.17,1.21-4.6,1.64-7.05,1.41-8.13,2.83-16.26,5.14-23.65,1.53-4.89,3.51-8.85,6.4-10.71,1.3-.84,2.57-1.31,3.77.72.53.9,1.21,1.43,1.89.17.71-1.32.46-2.65.12-4.08-1.35-5.59-4.29-7.95-7.64-6.16-.5.27-.93,1.31-1.55.69,3.9-6.03,9.28-5.72,10.52,3.96.13.98.2,2.36,1.05,1.77.68-.47.66-1.54.6-2.7-.13-2.54-.81-4.67-3.03-9.03,2.63-.97,5.02-.83,7.3,1.6-1.41-.02-2.39.47-1.24,3.7.14.4.1,1.05.16,1.57.09.82-.19,2.15.62,2.05.7-.09.77-1.23.95-2.32.31-1.95-.91-3.19-.54-5.08Zm67.93,142.48c-.45.34-1.14.69-1.73,1.36-1.58,1.77-3.14,3.6-4.66,5.55-7.11,9.13-11.91,22.05-15.84,36.38-.39,1.43-.34,2.66.3,3.62.81,1.21,1.3-.06,1.71-1.15.78-2.08,1.59-4.16,2.25-6.39,4.2-13.98,10-24.74,17.24-32.68.72-.79,1.41-1.79,2.02-2.88.42-.75.61-1.93.28-2.98-.29-.91-.85-.77-1.58-.83Zm-85.26-96.57c-.11,6.15.57,11.94,1.61,17.6.17.93.18,2.43.99,2.01.78-.4.78-1.73.64-3.01-.06-.53-.18-1.03-.26-1.55-1.9-13.35-2.39-26.26,3.12-37.28.19-.38.37-.84.17-1.44-.22-.67-.54-.87-.9-.62-.76.52-1.26,1.65-1.74,2.84-2.55,6.34-3.81,13.49-3.63,21.45Z"/>
    <path class="cls-2" d="m1230.78,178.06c-.69,11.8-.36,22.61,1.03,33.28,1.89,14.55,5.99,26.91,10.46,38.83,1.11,2.95,1.04,4.07-.64,5.85-13.72,14.63-25.67,33.73-36.79,54.93-.8,1.53-1.64,2.99-2.4,4.6-8.34,17.54-18.91,24.22-30.94,25.22-11.11.92-21.79-3.74-32.58-7.27-7.82-2.56-15.57-6.03-23.48-7.61-3.81-.76-7.4,1.21-10.93,3.48-4.86,3.12-9.67,6.49-14.62,9.82,1.96-28.7-2.71-54.98-7.2-81.35-2.6-15.23-5.8-30.07-7.76-45.71-.5-3.96-.75-8.05-1.35-11.95-.38-2.52.22-3.01,1.19-3.51,3.41-1.74,6.84-1.32,10.24-.06,5.25,1.95,10.38,4.69,15.42,8.14,1.69,1.16,3.01,3.49,4.41,5.53,5.91,8.62,12.12,16.32,18.58,23.25,7.22,7.76,14.97,12.39,23.21,13.52,1.81.25,1.58,1.26.87,3.54-.68,2.2-1.23,4.59-1.72,6.98-.23,1.13-.13,2.65.5,3.22.77.69,1.21-.68,1.38-1.79,1.58-10.25,5.61-13.11,10.59-14.55,7.03-2.04,12.99-9.47,18.82-16.8,9.97-12.56,20.61-22.13,31.87-29.35,7.55-4.83,14.8-10.97,21.83-20.24Zm-129.99,100.74c.12,1.42.22,3.4,1.19,3.6.94.2,1.17-1.73,1.32-3.16.91-8.44,3.45-14.75,6.89-19.85,1.45-2.14,2.99-4.04,4.45-6.17.7-1.02,1.83-2.3,1.26-4.12-.64-2.03-1.85-1.46-2.81-.21-2.75,3.57-5.39,7.39-7.63,12.15-2.37,5.04-3.92,10.9-4.68,17.77Z"/>
    <path class="cls-2" d="m1020.36,157.09c2.87,6.36,5.5,12.3,8.21,18.11.6,1.28,1.26,4.24,2.16,2.83,1.06-1.65-.25-3.65-.86-5.11-2.52-6.03-5.09-11.99-7.69-17.89-2.49-5.66-2.67-13.02-3.89-19.61-.32-1.7.32-3.02,1.16-3.89.97-1.01,1.46.23,1.92,1.41.97,2.5,2.18,4.84,2.78,7.66,1.49,7.08,4.2,12.14,6.94,17.23.5.93.91,2.06,1.36,3.1.4.93.82,2.36,1.5,1.57.56-.66.42-2.21.2-3.4-.64-3.51-1.69-6.56-2.89-9.43-.75-1.8-1.46-3.73-2.36-5.23-4.28-7.17-4.65-17.65-6.19-27.12-.38-2.32.42-3.61,1.62-3.64,1.1-.02,2.05.78,2.78,2.45.92,2.1,1.75,4.34,2.13,6.99,1.06,7.46,3.51,13.12,6.03,18.87,1.55,3.55,3.34,7.08,3.61,12.19.06,1.16.4,2.15,1.09,2.01.63-.12.63-1.35.72-2.22.19-1.94-.07-3.79-.53-5.51-.29-1.08-.54-2.31-.98-3.13-4.06-7.67-5.17-17.64-5.94-27.92-.12-1.63.03-2.99.76-3.94.67-.86,1.33-.64,1.97.17,1.6,2.04,2.82,4.83,3.02,8.48.31,5.68,2.01,9.67,3.75,13.81,1.49,3.52,3.29,6.76,3.65,11.66.08,1.11.51,1.69,1.04,1.68.55,0,.88-.79.98-1.82.18-1.78.17-3.49-.46-5.04-.87-2.13-1.6-4.53-2.59-6.44-2.37-4.62-2.88-10.72-3.73-16.55-.25-1.73-.05-3.29.79-4.27.92-1.08,1.41.54,1.97,1.4.43.66.83,1.53,1.09,2.46,3.73,13.61,9.41,24.37,14.21,36.41,1.5,3.77,3.11,7.39,4.77,10.9,3.4,7.18,5.2,15.89,6.06,25.21,2.02,21.89,5.49,42.92,9.41,63.74,3.54,18.79,6.62,37.85,7.91,57.81.59,9.12.6,18.19-.64,27.14-.2,1.47-.32,2.93-.27,4.42.23,6.16-1.31,10.31-3.92,13.38-4.43,5.2-9.2,8.72-14.21,11.04-2.75,1.27-5.33,3.31-7.88,5.61-8.27,7.47-16.86,12.13-26.1,10.33-3.55-.69-7.09-1.75-11.34-1.56,1.68-2.19,2.86-3.72,4.03-5.26.74-.98,1.46-2.36.85-3.99-.51-1.39-1.44-.59-2.11.18-2.3,2.62-4.52,5.5-6.87,7.94-4.14,4.31-8.74,5.31-13.29,5.05-6.62-.38-12.83-10.53-14.67-22.86-.52-3.52-.93-7.11-1.4-10.67-.18-1.34-.24-2.63-.02-4.01,2.73-17.45,5.41-34.92,8.15-52.36,2.98-18.97,8.19-34.9,16.32-47.46,5.6-8.66,11.19-17.35,16.87-25.82.58-.86,1.22-1.26,1.9-1.67,4.49-2.78,8.81-6.37,13.16-9.86,2.58-2.07,4.44.28,4.6,5.97.23,8.19-.25,16.31-.65,24.44-.74,15.42-1.61,30.82-2.29,46.25-.17,3.9-.56,5.69-2.95,5.96-6.44.73-12.89,1.64-19.19,4.68-1.44.69-2.42-.98-3.5-2.11-1.3-1.35-2.5-3.03-3.77-4.48-.79-.91-1.75-1.09-2.27.48-.52,1.58.45,2.31.95,3.09.93,1.45,1.92,2.75,2.89,4.1,2.32,3.2,4.58,4.4,7.62,2.81,5.97-3.12,12.23-3.23,18.36-4.58,1.24-.27,1.49.62,1.55,2.88.24,8.91,1.07,17.56,3.5,25.35.25.81.53,1.61.81,2.39.39,1.07.91,2,1.57,1.11.61-.82.2-2.05-.07-2.93-5.02-16.14-3.63-33.55-2.79-50.91.91-18.68,2.51-37.26,2.35-56.1-.06-6.67-1.45-11.36-4.84-14.22-5.74-4.85-11.52-9.38-17.46-13.17-2-1.28-3.42-3.43-4.34-7.12-1.31-5.28-2.97-10.18-4.71-14.97-1.5-4.13-2.01-8.75-1.42-14.48Z"/>
    <path class="cls-2" d="m1429.72,251.83c-5.5-2.92-9.96,1-13.93,7.22-2.67,4.17-4.97,9.21-7.44,13.87-.43.82-1.12,1.62-.55,3.02.6,1.46,1.15.22,1.61-.47,2.46-3.65,4.74-7.7,6.89-12.02,2.63-5.27,6.1-7.06,9.56-8.84.86-.44,1.86-.47,2.55,1.11.46,1.05.9,2.26.53,3.69-.34,1.3-.99.56-1.51.56-3.99,0-7.69,2.11-10.75,7.01-2.76,4.4-5.24,9.47-7.83,14.28-.43.8-1.1,1.64-.51,3.05.73,1.74,1.28.13,1.74-.63,1.92-3.19,3.91-6.27,5.65-9.81,2.86-5.86,6.53-8.2,10.4-9.97,1.78-.81,2.08,1.68,2.35,3.82.32,2.5-.19,4.78-1.16,6.57-.06.11-.36-.16-.52-.35-2.32-2.88-4.52-1.24-6.83.3-4.93,3.3-8.44,10-11.67,17.47-.4.92-1.03,1.83-.39,3.12.75,1.52,1.27.02,1.75-.83.78-1.37,1.58-2.75,2.22-4.35,2.67-6.66,6.47-9.84,10.35-12.71,1.2-.89,2.72-2.52,3.54,1.4.43,2.07-.41,8.33-1.27,9.34-.35.42-.64.17-.98-.05-3.62-2.37-6.58.37-9.26,4.73-1.56,2.54-2.96,5.42-4.45,8.11-.49.89-.99,1.76-.49,3.08.54,1.45,1.17.54,1.64-.2,1.47-2.32,3-4.55,4.29-7.21,1.54-3.17,3.44-4.64,5.53-5.45,1.93-.75,2.8,1.26,2.19,4.98-.56,3.45-1.57,6.41-3.02,8.7-2.1,3.32-3.76,6.88-4.53,12.32-.83,5.95-2.7,11.26-5.26,15-7.11,10.37-12.32,24.11-18.09,36.88-4.09,9.05-8.65,17.11-14.02,23.33-.98,1.14-1.8,1.27-2.92.56-5.93-3.71-10.5-11.42-15.03-19.16-1.14-1.95-1.13-5.64-.37-8.14,2.41-8.01.51-15.69-4.27-15.99-4.37-.28-8.68-1.26-13-2.34-.64-.16-1.25-.3-1.78-1.06-4.85-6.98-10.5-10.9-15.96-15.55-9.45-8.04-18.87-16.19-28.36-24.09-2.07-1.73-3.21-4.25-4.15-8.29-5.97-25.82-11.68-51.84-17.07-78.14-4.89-23.84-8.43-48.41-11.31-73.38-.12-1.03-.34-2.1,0-3.38,3.29,1.63,5.9,5.44,8.29,9.9,5,9.31,8.69,20.67,12.95,31.14,12.82,31.48,27.32,59.78,43.64,84.32,8.58,12.91,18.05,23.53,27.71,33.38,3.54,3.61,6.98,1.81,10.48,1.49,4.14-.39,8.26-1.48,12.39-1.93,2.95-.32,5.6-1.69,8.03-5.15,3.79-5.4,7.7-10.48,11.25-16.51,2.75-4.68,5.77-8.67,8.85-12.5,4.51-5.62,8.58-12.29,12.48-19.39,1.25-2.28,2.67-3.89,4.46-4.17,3.1-.5,4.78,1.99,5.36,8.34Z"/>
    <path class="cls-2" d="m1356.35,118.47c-.22,1.32-.11,2.62.57,3.09.63.43.97-.86,1.29-1.69,1.38-3.61,2.73-7.27,4.09-10.89,1.06-2.8,2.51-4.48,4.34-5.26-2.04,5.79-4.08,11.56-6.11,17.36-.48,1.38-1.56,3.02-.52,4.48,1,1.39,1.56-1.06,2.06-2.34,2.31-6,4.58-12.06,6.82-18.15.8-2.17,1.73-3.65,3.16-3.03,1.49.65,2.66,1.89,3.22,5.12.74,4.31.45,8.57-.89,11.65-3.43,7.89-4.14,17.26-4.73,26.88-.69,11.15-3.57,20.12-8.09,26.78-5.61,8.27-8.86,18.85-10.23,32.18-1.01,9.86-2.43,19.58-6.67,26.67-2.52,4.23-5.13,5.3-8.14,2.62-3.53-3.14-6.89-6.93-9.71-12.1-4.81-8.8-10.56-13.75-16.95-16.26-4.2-1.65-8.34-3.83-12.5-5.74-2.42-1.11-4.15-3.56-5.67-7.13-3.98-9.35-7.86-18.86-11.52-28.68-1.81-4.86-3.81-9.44-5.98-13.72-2.75-5.43-5.9-9.69-9.71-11.79-1.11-.61-1.57-1.63-1.77-3.84-1.02-11.26-2.99-21.77-6.69-30.9-1.34-3.31-2.96-5.54-4.95-7.27-6.18-5.38-12.47-4.25-18.83-1.93-1.3.47-2.61.84-4.48,1.43,4.45-7.88,8.93-13.8,13.74-18.81,2.48-2.59,5.06-4.86,7.87-5.65,6.03-1.7,11.08,1.38,15.32,10.5,7.76,16.73,16.22,32.14,25.33,46.12,9.1,13.98,18.93,25.89,29.1,36.74,3.32,3.54,6.69,3.41,10.19,1.34,5.78-3.42,10.52-9.62,13.89-19.44,3.66-10.68,7.74-20.66,12.8-29.01l.37.7Zm-22.59,90.96c.66-.1,1.22-.15,1.78-.29.89-.23,1.7-.7,1.52-2.98-.17-2.17-.96-1.94-1.76-1.66-2.89,1.04-5.55-.72-8.19-2.61-.66-.47-1.3-1.04-1.97-1.37-.51-.25-1.03.2-1.27,1.08-.34,1.21.27,1.69.67,2.09,2.93,2.96,5.95,5.45,9.23,5.74Z"/>
    <path class="cls-2" d="m954.53,171.58c-.4.96-1.61.67-1.37,2.5.22,1.66,1.19,1.07,1.84,1.1,1.9.08,3.8.09,5.69-.03,2.19-.14,3.77,1.18,4.58,5.52.45,2.44,1.17,5.44,2.71,1.37.38-1.01.92,0,1.31.41,3.46,3.63,6.86,7.47,10.08,11.87,1.42,1.93,1.79,4.07.74,7.53-3.68,12.1-6.4,24.88-5.86,39.38.19,5.01.4,10.03.71,15.02.66,10.53-1.14,20.42-2.01,30.55-.21,2.47-.87.97-1.32.44-6.85-7.97-14.47-10.92-22.25-12.56-3.76-.79-7.57-.84-11.29-2.23-3.83-1.42-7.44-4.07-10.79-7.9-8.07-9.24-11.69-23.73-12.55-41.15-.45-9.1-.39-18.23,1.52-26.9,4.25-19.31,11.46-31.54,22.33-34.94.74-.23,1.54-.03,2.29.25,3.03,1.11,6.04,2.44,9.08,3.46,2,.67,3.59,2.26,4.54,6.32Zm-14.43,93.79c-1.83-.13-3.66-.15-5.4-1.5-2.81-2.2-3.47-6.73-1.65-11.46,1.26-3.28,3.1-4.53,5.08-5.16.58-.19,1.2-.23,1.18-1.7-.02-1.64-.65-1.87-1.35-1.78-1.88.25-3.56,1.57-5.08,3.64-2.03,2.77-3.24,6.45-2.97,11.43.27,4.95,2.16,7.12,4.29,8.54,4.04,2.68,8.17,2.56,12.24.39,2.72-1.44,4.77-4.61,5.5-10.19.19-1.43.5-1.72,1.18-1.27.99.66,2.01,1.23,3.02,1.77,4.17,2.19,8.2,1.85,11.98-2.65.65-.77,1.58-1.38,1.09-3.28-.56-2.15-1.42-.54-1.97.06-3.55,3.82-7.24,3.86-11.03,1.8-1.15-.62-2.3-1.23-3.42-2.03-1.57-1.13-2.57-.69-2.83,2.96-.39,5.44-2.2,8.2-4.85,9.4-1.66.75-3.34.86-5.02,1.04Zm3.82-11.33c1.05-2.02,1.06-2.03.9-2.94-.21-1.23-.7-1.55-1.31-1.61-3.3-.33-6.44.63-9.24,4.29-.49.64-1.34,1.32-1.01,2.66.39,1.6,1.18.77,1.84.2,2.59-2.23,5.15-5.91,7.59.87.56,1.55,2.35,3.31,3.1,1.17.92-2.64-1.14-2.91-1.86-4.64Z"/>
    <path class="cls-3" d="m930.62,271.81c5.67,4.72,11.19,5.33,16.72,5.79.96.08,1.08,1.22,1.29,2.59,1.92,12.27,5.5,22.22,11.03,29.42.39.51.98.84.84,2.05-.12,1.05-.63,1.36-1.11,1.63-3.29,1.83-6.66,1.87-10.03,1.37-6.85-1.02-13.09-5.82-19.09-11.96-4.98-5.1-8.72-12.72-11.42-22.26-.14-.48-.26-.97-.4-1.43-.31-.99-.76-1.95-1.35-1.36-.68.68-.25,1.89-.03,2.85,1.79,8.08,4.68,14.55,8.2,19.88,2.76,4.18,5.71,7.86,8.58,11.76.55.75,1.49,1.23,1.27,2.83-.23,1.66-1.19,1.8-1.95,1.79-4.79-.05-8.99-3.49-12.44-9.59-4.62-8.15-8.42-17.58-9.85-29.76-1.64-13.93.34-26.87,3.04-40.6,1.11,5.08,2.03,9.32,3.18,13.36,2.36,8.31,5.81,14.25,10.07,18.58,1.06,1.07,1.63,2.32,2.04,4.64,2.88,16.39,8.73,27.23,17.02,33.3.33.24.66.48,1,.62.48.21,1.06.44,1.23-.79.14-.97-.35-1.35-.73-1.67-.58-.48-1.18-.87-1.76-1.36-7.24-6.12-12.44-16.01-15.35-31.67Zm-17.56-1.31c.06,9.28,1.73,16.38,4.89,22.13.41.74.91,2.32,1.54,1.04.69-1.39-.32-2.08-.66-2.85-1.8-4.11-3.14-8.67-3.69-13.97-.26-2.52-.36-5.1-.52-7.66-.05-.82-.06-1.73-.61-1.8-.51-.07-.72.74-.82,1.54-.1.78-.14,1.59-.13,1.56Zm31.51,20.11c.04,2.93,2.54,9.47,3.91,10.28.43.25.89.27,1.15-.46.31-.84,0-1.53-.35-2.06-1.5-2.35-2.74-5.07-3.48-8.57-.13-.63-.37-1.25-.79-1.09-.59.23-.4,1.24-.45,1.91Z"/>
    <path class="cls-3" d="m1296.87,204.53c5.65,2.37,11.3,4.75,17.44,7.33-2.77,3.3-5.1,5.7-7.5,7.92-1.05.98-1.74.63-2.55-1-2.43-4.87-4.96-9.56-7.45-14.33l.06.07Z"/>
    <path class="cls-2" d="m1355.98,117.76c.23-.63.46-1.26.69-1.89.11.19.22.37.32.56-.21.68-.43,1.36-.64,2.04-.12-.23-.25-.47-.37-.7Z"/>
    <path class="cls-2" d="m1357.57,115.1c-.19.44-.38.89-.57,1.33-.11-.19-.22-.37-.32-.56.21-.43.42-.86.63-1.29.09.18.18.35.27.52Z"/>
    <path class="cls-3" d="m1228,90.14c-.19.21-.35.99-.6.28-.19-.56.09-.93.3-1.25.1.32.2.64.3.96Z"/>
    <path class="cls-3" d="m1227.18,92.2c-.07-.23-.14-.46-.22-.7.46-.22.08.51.2.67,0,0,.01.03.01.03Z"/>
    <path class="cls-3" d="m1226.63,92.97c.02-.69.11-1.19.55-.77,0,0-.01-.03-.01-.02-.2.29-.41.56-.61.84l.07-.04Z"/>
    <path class="cls-3" d="m1226.56,93.01c.02-.08.04-.16.06-.25-.04.02-.08.04-.11.06.04.04.09.08.13.13,0,0-.07.05-.07.05Z"/>
    <path class="cls-2" d="m1357.3,114.58c.05-.35.14-.71.34-.4.06.1-.04.6-.07.92-.09-.17-.18-.34-.27-.52Z"/>
    <path class="cls-3" d="m1296.81,204.46s.09-.05.14-.07c-.15-.21-.18-.16-.08.14,0,0-.06-.07-.06-.07Z"/>
    <path class="cls-4" d="m1294,379.58c-.68.13-1.21-.55-1.74-1.25-1.73-2.31-2.93-5.42-3.65-9.22-.85-4.45-1.63-8.94-2.51-13.37-.22-1.13-.4-2.16.16-2.86.68-.86,1.07.36,1.31,1.24.72,2.63,1.45,5.28,2.01,8.05,1.06,5.28,2.31,10.19,4.97,13.2.54.61,1.11,1.59.89,2.94-.19,1.16-.87,1.2-1.44,1.27Z"/>
    <path class="cls-4" d="m1110.08,135.61c0,1.42-.47,1.77-1.1,1.9-1.25.27-2.51.54-3.75.92-3.22.99-5.98,3.72-8.2,8.38-.55,1.15-1.25,2.39-1.95.97-.65-1.31.2-2.47.61-3.41,3.47-7.8,8.05-10.42,13.17-10.48.62,0,1.11.36,1.22,1.72Z"/>
    <path class="cls-4" d="m1109.72,106.33c-1.04-.25-2.09-.44-3.12-.79-.31-.1-.75-.56-.81-1.03-.13-.92.35-1.51.72-1.67,1.81-.8,3.62-.3,5.4.51.43.2.63,1.05.61,1.94-.03,1.1-.47,1.24-.9,1.24-.63-.01-1.26-.13-1.89-.2Z"/>
    <path class="cls-4" d="m1012.22,214.64c.72.06,1.29-.08,1.58.83.33,1.05.14,2.23-.28,2.98-.61,1.09-1.3,2.09-2.02,2.88-7.25,7.94-13.05,18.7-17.24,32.68-.67,2.22-1.47,4.3-2.25,6.39-.41,1.09-.9,2.36-1.71,1.15-.64-.96-.69-2.19-.3-3.62,3.94-14.33,8.74-27.25,15.84-36.38,1.52-1.95,3.08-3.78,4.66-5.55.59-.67,1.28-1.02,1.73-1.36Z"/>
    <path class="cls-4" d="m926.96,118.07c-.18-7.96,1.09-15.11,3.63-21.45.48-1.19.98-2.32,1.74-2.84.36-.25.68-.04.9.62.2.6.02,1.06-.17,1.44-5.51,11.03-5.02,23.93-3.12,37.28.07.52.19,1.02.26,1.55.15,1.28.14,2.6-.64,3.01-.81.42-.82-1.08-.99-2.01-1.04-5.66-1.72-11.44-1.61-17.6Z"/>
    <path class="cls-4" d="m944.29,72.16c-.38,1.9.85,3.13.54,5.08-.17,1.09-.25,2.23-.95,2.32-.81.1-.53-1.23-.62-2.05-.06-.53-.02-1.17-.16-1.57-1.16-3.23-.17-3.72,1.24-3.7,0,0-.05-.07-.05-.07Z"/>
    <path class="cls-4" d="m1100.79,278.81c.75-6.87,2.3-12.73,4.68-17.77,2.24-4.76,4.89-8.58,7.63-12.15.96-1.25,2.17-1.82,2.81.21.57,1.82-.55,3.1-1.26,4.12-1.46,2.12-3,4.02-4.45,6.17-3.45,5.1-5.98,11.42-6.89,19.85-.16,1.44-.38,3.36-1.32,3.16-.98-.2-1.07-2.18-1.19-3.6Z"/>
    <path class="cls-4" d="m1333.76,209.43c-3.27-.29-6.29-2.78-9.23-5.74-.4-.4-1-.88-.67-2.09.24-.88.76-1.32,1.27-1.08.67.33,1.32.9,1.97,1.37,2.64,1.89,5.3,3.65,8.19,2.61.8-.29,1.59-.51,1.76,1.66.18,2.28-.63,2.75-1.52,2.98-.56.14-1.12.19-1.78.29Z"/>
    <path class="cls-4" d="m940.1,265.37c1.68-.18,3.36-.29,5.02-1.04,2.65-1.2,4.46-3.96,4.85-9.4.26-3.65,1.26-4.08,2.83-2.96,1.12.8,2.27,1.4,3.42,2.03,3.79,2.06,7.48,2.02,11.03-1.8.56-.6,1.42-2.21,1.97-.06.49,1.9-.44,2.51-1.09,3.28-3.78,4.5-7.81,4.84-11.98,2.65-1.01-.53-2.03-1.11-3.02-1.77-.68-.45-.99-.16-1.18,1.27-.73,5.58-2.78,8.75-5.5,10.19-4.08,2.17-8.2,2.29-12.24-.39-2.13-1.41-4.02-3.58-4.29-8.54-.27-4.98.94-8.66,2.97-11.43,1.52-2.07,3.2-3.39,5.08-3.64.69-.09,1.33.14,1.35,1.78.02,1.47-.6,1.51-1.18,1.7-1.98.64-3.82,1.89-5.08,5.16-1.82,4.72-1.16,9.26,1.65,11.46,1.74,1.36,3.57,1.37,5.4,1.5Z"/>
    <path class="cls-4" d="m943.92,254.04c.72,1.73,2.78,2,1.86,4.64-.75,2.14-2.54.39-3.1-1.17-2.44-6.78-5-3.11-7.59-.87-.66.57-1.44,1.4-1.84-.2-.33-1.34.53-2.02,1.01-2.66,2.8-3.66,5.94-4.63,9.24-4.29.61.06,1.1.39,1.31,1.61.16.91.15.92-.9,2.94Z"/>
    <path class="cls-4" d="m913.06,270.49s.03-.78.13-1.56c.11-.81.31-1.61.82-1.54.55.07.56.98.61,1.8.16,2.56.25,5.14.52,7.66.56,5.3,1.89,9.86,3.69,13.97.34.77,1.34,1.47.66,2.85-.63,1.28-1.14-.3-1.54-1.04-3.17-5.76-4.83-12.85-4.89-22.13Z"/>
    <path class="cls-4" d="m944.56,290.6c.05-.67-.14-1.68.45-1.91.41-.16.65.47.79,1.09.74,3.5,1.98,6.23,3.48,8.57.34.53.66,1.22.35,2.06-.27.73-.73.72-1.15.46-1.37-.81-3.87-7.35-3.91-10.28Z"/>
  </g>
</svg>