<?xml version="1.0" encoding="UTF-8"?>
<svg id="Layer_1" data-name="Layer 1" xmlns="http://www.w3.org/2000/svg" viewBox="0 0 671.33 677.89">
  <defs>
    <style>
      .cls-1 {
        fill: #e5579f;
      }

      .cls-1, .cls-2, .cls-3, .cls-4 {
        stroke-width: 0px;
      }

      .cls-2 {
        fill: #733f98;
      }

      .cls-3 {
        fill: #e7bad7;
      }

      .cls-4 {
        fill: #231f20;
      }
    </style>
  </defs>
  <path class="cls-4"
        d="m2.41,5c3.22,0,3.22-5,0-5s-3.22,5,0,5h0Z"/>
  <path class="cls-2"
        d="m418.02,296.06c.47,3.31,3.08,3.7,5.02,4.6,2.91,1.35,2.93,2.82,1.01,5.29-6.28,8.13-6.2,8.12-1.82,17.82,5.58,12.36,9.24,25.58,12.02,39.11,1.06,5.18.92,10.43-.51,15.71-2.74,10.1-.44,20.3.28,30.42.78,10.89.21,21.61-1.63,32.32-.75,4.4-1.98,3.77-4.24,1.34-7.7-8.29-15.3-16.74-23.68-24.11-2.11-1.86-2.6-4.05-2.26-6.93,1.71-14.47,1.22-28.97.14-43.46-.52-6.92-.11-13.79.85-20.6-2.49-.53-2.21,1.5-2.46,2.63-1.04,4.79-1.19,9.68-.87,14.61.89,13.68,1.29,27.37.1,41.04-.24,2.78.75,6.95-4.5,7.18,4.56,4.15,8.67,7.48,12.37,11.34,10.94,11.4,21.83,22.88,32.53,34.59,5.38,5.88,10.97,7.19,17.68,3.53,6.57-3.59,12.91-8.3,20.72-6.99,1.97.33,4.2-.55,5.98,2.1-4.75,1.73-9.69,1.95-15.05,5.51,7.27,2.52,14.16,1.04,20.25,3.93,5.95,2.82,11.46,6.5,15.56,12.77-8.08-4.47-15.94-9.36-25.32-9.42.57,1.96,1.91,2.11,3,2.15,8.56.28,14.89,6.34,21.57,11.42,1.05.8,2.85,1.68,1.75,3.67-.84,1.52-2.55,1.55-3.8.67-2.98-2.1-5.88-4.39-8.73-6.73-3.16-2.58-6.58-3.1-10.33-2.13,7.08,1.84,12.56,6.68,17.62,12.63-8.12-.02-14.36-8.69-23.44-6.4,5,3.59,10.46,5.98,13.02,12.46-2.11,1.01-3.31-.7-4.44-1.64-7.7-6.44-16.28-8.91-25.63-8.86-7.62.04-14.52-2.56-21.32-7.03-18.55-12.19-37.67-23.19-54.33-39.01-1.86-1.77-4.24-2.81-6.41-4.1-3.72-2.21-6.17-5.71-6.23-10.56-.2-14.45-3.48-28.24-5.92-42.25-3.06-17.54-.23-35.49-1.68-53.19-.18-2.16.42-4.46-.79-6.67-2.01,2.07-1.53,4.67-1.52,6.94.11,24.06-1.6,48.25,4.95,71.77,1.99,7.15,2.22,14.88,2.14,22.47-.05,4.89,1.31,9.44,4.92,11.49,11.1,6.3,20.02,16.33,30.55,23.55,6.32,4.33,12.72,8.51,19.21,12.47,2.96,1.81,3.43,3.63,2.03,7.25-5.75,14.78-6.65,29.48,1.19,43.87,1.86,3.41,1.02,7.59,1.51,11.39,1.66,12.73,3.41,25.45,5.91,37.98,3.24,16.19.2,32.05-1.29,48.01-.22,2.33-1.24,3.18-3.2,2.71-11.41-2.74-22.13.58-32.74,5.03-3.28,1.38-6.62,2.45-10.1,3.09-10.47,1.95-19.58-.98-27.67-9.17-8.74-8.86-17.91-7.54-24.25,3.77-2.78,4.97-5.33,6.74-10.56,5.46-6.78-1.67-13.85-1.72-20.8-2.45-3.39-.35-6.55.5-9.62,2.24-3.29,1.87-6.66,3.57-10.05,5.15-7.26,3.38-8.23,4.89-6.21,13.62.94,4.08-.37,4.27-2.91,3.92-5.29-.74-7.85-5.82-5.21-12.27-2.74,2.24-6.75.44-5,7.2.96,3.7-2.93,9.09-5.7,11.15-2.72,2.03-7-.97-9.4-4.61-4.07-6.18-3.22-15.13,2.06-20.43,3.04-3.05,6.35-5.74,9.61-8.48,5.3-4.45,10.04-9.43,13.08-16.4,3.11-7.15,8.14-9.46,14.84-8.03,7.54,1.61,14.83,4.44,22.5,5.53,14.64,2.08,28.87-.45,43.06-4.08,12.15-3.11,22.69,1.11,32.47,9.31,1.67,1.4,1.99,3.67,3.44,5.77,1.25-8.24.65-15.99-.83-23.51-3.48-17.61-4.56-35.55-6.03-53.44-.5-6.13-2.08-11.11-6.04-15.61-10.21-11.58-14.12-26.49-10.52-42.16,5.23-22.77,1.04-44.02-3.93-65.65-5.27-22.98-9-46.28-6.67-70.27.77-7.91,1.65-15.86,3.23-23.58,2.02-9.9,8.64-16.06,14.87-22.32,7.14-7.17,14.97-13.47,20.57-22.55,1.87-3.03,4.87-5.85,1.76-10.17-.31-.44-.14-1.62.11-2.31,3.53-10.08,3.17-20.89,3.9-31.41.29-4.24-.38-8.05,2.29-11.8,5.2-7.29,11.81-10.75,19.64-11.8,11.19-1.51,19.11,5.6,26.56,13.81,3.09,3.41,6.77,5.73,10.23,8.47,2.46,1.95,3.77,4.1,1.59,7.55-2.06,3.25-1.41,7.01-.89,10.67.65,4.56.58,8.87-2.03,12.82-2.77,4.19-.32,8.7,0,13.02.33,4.57,2.58,9.84-4.58,9.18-1.45-.13-2.04,1.19-1.92,2.92.43,6-2.76,10.12-5.55,14.43-1.52,2.33-3.56,2.1-5.71,1.54-5.52-1.44-10.47-4.43-15.42-7.45-2.61-1.59-4.99-3.79-8.03-4.26,0,0-.28-.24-.28-.24l.34.16Zm-13.42,32.97c2.93-10.91-1.5-22.14-9.5-23.8,6.92,6.07,7.93,14.39,9.5,23.8Zm-146.36,324.49c-.05.12-.11.24-.16.36.21,0,.41,0,.62.01-.05-.12-.07-.28-.16-.36-.06-.06-.2-.01-.3-.02Z"/>
  <path class="cls-1"
        d="m603.29,666.7c1.2,3.49,4.26,4.6,6.38,6.91.86.94,2.22,1.91,1.3,3.48-.61,1.04-2.12,1.02-2.9.29-9.19-8.66-21.16-10.31-31.1-17.03-4.08-2.75-6.45-7.26-6.78-12.5-1.48-23.22-4.18-46.88.15-69.6,3.72-19.53,3.45-39.32,6.6-58.73,1.62-10.02,3.65-19.99,3.13-30.32-.14-2.82.07-5.73-1.61-8.28-2.1,1.55-1.1,3.8-1.03,5.57.51,13.23-2.21,25.95-4.23,38.79-.53,3.37-2.23,3.65-4.06,2-6.63-5.98-13.47-5-20.77-1.94-4.96,2.08-10.34,2.12-15.53,1.19-8-1.42-16.02-.74-24.02-.87-7.12-.12-13.93-2.84-21.07-2.69-2.8.06-4.55-1.72-3.38-5.67.6-2.05.95-4.33-.51-7.49-2.56,5.75-2.61,11.36-2.78,16.78-.6,18.8,2.05,37.44,2.03,56.26-.02,17.04-1.48,33.82-3.73,50.56-.74,5.51-.47,11.01-.63,16.51-.41,14.01-10.31,22.43-21.86,18.81-15.86-4.98-32.27-6.16-48.41-9.26-13.22-2.54-26.47-4.97-39.92-5.24-10.36-.21-20.56,1.01-30.46,4.56-10.77,3.86-22.01,3.66-32.99,5.74-1.83.35-3.62.16-3.48-2.95.25-5.55,6.96-14.83,11.79-14.34,12.04,1.22,17.93-8.52,24.03-17.53,6.67-9.86,13.56-11.36,21.72-3.33,10.1,9.94,21.61,11.45,33.95,7.97,8.29-2.33,16.21-6.19,24.71-7.76,9.06-1.66,17.13,2.66,25.56,4.85,2.11.55,1.29,3.59,3,5.24,1.57-4.06,1.13-8.12.43-11.87-1.66-8.91-3.21-17.83-5.51-26.62-2.5-9.56-2.77-19.88-4.73-29.67-2.79-13.94-4.61-28.03-6.17-42.2-.26-2.37-1.12-4.73-2.03-6.9-5.13-12.24-4.28-24.43-.17-36.72,1.21-3.61,2.96-5.15,5.86-2.51,10.87,9.89,24.13,9.76,36.77,11.79,4.9.79,9,2.72,13.03,5.61,1.63,1.17,3.38,2.11,5.1,3.09,1.24.71,2.62,1.69,3.77-.03.98-1.48.62-3.04-.21-4.55-.61-1.11-1.89-1.99-1.19-3.71.97-.77,1.6.17,2.32.61,6.92,4.26,13.92.4,15.82-8.49.58-2.74.12-4.63-1.54-6.57-8.31-9.7-18.01-15.59-31.02-15.09,6.4-2.98,11.54-2.87,17.06-.1,5.69,2.85,11.34,6.01,17.46,7.62,14.09,3.71,26.45-2.95,38.68-9.36,11.96-6.27,22.82-14.87,33.24-24.17,1.37-1.22,2.89-2.35,4.49-3.05,1.92-.84,3.68-.86,4.26,2.45.67,3.8,2.96,6.18,5.8,8.19,4.31,3.04,8.7,6.03,12,10.72,5.18,7.36,6.13,15.73,4.34,24.68-3.55,17.75-9.25,34.65-15.35,51.33-3.9,10.68-6.16,21.54-6.41,33.17-.44,20.38-6.42,39.62-9.43,59.48-.09.6-.3,1.18-.36,1.79-1.31,12.67-.96,16.99,13.23,20.46,9.76,2.39,18.36,7.92,24.85,17.32,1.76,2.55.34,5.65,1.73,8.38.57,1.11-1.78,1.02-2.84.51-2.68-1.29-4.34-4.06-6.29-6.36-4.2-4.95-9.31-7.57-15.27-8.41,6.48,3.32,12.57,7.28,17.1,13.77.93,1.33,3.82,2.3,1.77,4.6-1.39,1.56-3.15.17-4.39-1.66-2.43-3.6-5.58-6.08-9.34-7.45-2.33-2.78-5.06-4.46-9.48-4.79,3.39,3.15,6.12,4.86,9.53,4.72Zm15.69-1.22c.12.11.25.22.37.32-.14-.08-.29-.17-.43-.25-.35-.41-.7-.82-1.05-1.23-.13-.09-.27-.18-.4-.27.15.07.31.13.46.2.35.41.7.82,1.05,1.23Zm-4.19-4.91c.03.16.04.34.11.47.04.08.18.08.28.12-.15-.18-.3-.35-.44-.53-.35-.41-.7-.82-1.04-1.23-3.52-5.39-8.89-4.92-13.38-7.21-.19.59-.37,1.18-.56,1.77,4.66,1.79,9.33,3.58,13.99,5.38.35.41.7.82,1.05,1.23Z"/>
  <path class="cls-1"
        d="m632.59,553.81c-2.33,4.71-5.34,9.06-5.55,15.39-2.6-1.75-3.93-4.19-3.36-7.06,1.72-8.75-1.71-15.67-5.71-22.13-4.69-7.56-8.27-15.17-9.09-24.89-.7-8.26,3.48-14.33,4.77-21.59,1.13-6.37,2.68-12.56,3.23-19.14,1.16-13.97-4.76-22.89-14.12-29.65-8.84-6.39-9.36-7.14-6.02-18.66,3.73-12.86,9.65-24.43,16.54-35.31,2.13-3.36,4.9-6.02,8.31-7.15,12.14-4.03,24.47-5.33,36.22,1.07,10.55,5.74,12.11,14.67,4.81,25.18-5.17,7.43-10.74,14.43-15.52,22.29-8.22,13.52-10.14,27.93-5.61,43.52,3.06,10.53,2.41,20.4-2.66,29.94-5.59,10.53-8.88,21.73-6.01,34.34,1.06,4.68.09,9.3-.27,13.94l.05-.09Z"/>
  <path class="cls-1"
        d="m599.86,535.12c2.29,14.87,1.48,28.33-.38,41.81-1.42,10.25-4.79,20.07-4.89,30.59-.06,7.2,1.11,8.75,7.06,9.22,5.51.44,10.96,1.61,16.58.18,5.86-1.48,10.85,2.39,15.64,5.48,2.59,1.67,2.31,6.21,1.67,8.89-.66,2.74-3.87,2.25-6,1.24-5.29-2.5-10.53-4.26-16.07-1.08.14.37.2.8.42,1.05,1.14,1.32,4,1.36,3.22,3.99-.76,2.58-3.44,2.24-5.06,1.5-7.58-3.46-15.76-3-23.52-5.34-3.59-1.08-4.44-2.73-3.64-6.83,3.16-16.29,6.2-32.61,9.07-48.98,1.37-7.79,1.52-15.77,1.73-23.71.16-5.93,1.2-11.55,4.16-18.01Z"/>
  <path class="cls-1"
        d="m480.92,649.46c.89-10.46,1.49-20.38,2.62-30.21,1.93-16.81,2.76-33.61,1.68-50.56-.8-12.59-1.14-25.23-1.62-37.85-.1-2.64-.35-5.88,3.18-5.36,2.85.42,6.68-.5,6.85,5.16,1.12,36.48,2.52,72.97-4.57,108.96-.94,4.77-3.15,8.36-8.14,9.86Z"/>
  <path class="cls-1"
        d="m671.33,418.48c-.36,1.99-.4,4.15-1.13,5.91-2.3,5.51-2.54,10.9-.24,16.47,1.51,3.67.9,6.39-2.89,7.15-1.68.33-2.18,1.7-2.66,3.31-1.45,4.77-4.35,8.1-7.7,11.18-1.86,1.71-3.49,2.24-5.71,1.62-9.63-2.72-11.3-6.23-8.11-17.31,3.43-11.93,10.5-21,17.25-30.34,1.8-2.48,3.46-5.1,5.22-7.62.82-1.17.99-3.47,2.81-3.01,1.42.37,1.22,2.32,1.51,3.61.65,2.95,1.11,5.95,1.66,9.03Z"/>
  <path class="cls-1"
        d="m632.54,553.9c3.96-6.26,2.72-13.34,1.77-20.04-1.17-8.25,1.07-15.2,4.2-22.15,1.7-3.78,3.16-7.71,4.73-11.58,2.97-7.34,3.61-14.83,1.16-22.58-.66-2.1-1.02-4.32-1.53-6.49-.55-2.34-1.93-5.13-.48-7,1.66-2.14,3.72.59,5.64.98,6.14,1.26,8.26,4.2,8.05,12.68-.32,13.01-2.72,23.82-10.51,33.32-5.11,6.23-7,14.42-6.68,23.16.27,7.2.4,14.36-4.17,20.24-1.25,1.6-1.9,1.78-2.14-.63,0,0-.05.09-.05.09Z"/>
  <path class="cls-2"
        d="m464.96,452.52c-6.35.07-12.2,1.65-17.97,3.97-5.81,2.34-12.81-4.63-11.96-11.81.28-2.37.66-4.72,1.23-8.75,7.38,12.5,16.52,18.59,28.7,16.59Z"/>
  <path class="cls-1"
        d="m446.49,460.37c5.32-3.99,9.82-5.15,16.48-4.44-3.55,5.68-10.43,7.73-16.48,4.44Z"/>
  <path class="cls-2"
        d="m507.03,480.68c-.2.51-.32.82-.44,1.13-.33-.25-.7-.46-.95-.79-.07-.1.23-.81.29-.8.37.08.73.29,1.1.46Z"/>
  <path class="cls-3"
        d="m404.6,329.03c-1.57-9.41-2.58-17.73-9.5-23.8,7.99,1.66,12.43,12.88,9.5,23.8Z"/>
  <polygon class="cls-3"
           points="418.02 296.06 417.68 295.89 417.96 296.13 418.02 296.06"/>
  <path class="cls-2"
        d="m388.86,309.8c.12,0,1.03.1.42,0,.25.04.49.09.73.15s.48.13.72.21c.13.05.27.09.4.15-.27-.12-.27-.12,0,0,.46.23.91.47,1.34.75.19.12.37.25.55.38.23.17.24.18.04.02.12.1.24.19.36.29.86.72,1.65,1.52,2.39,2.36.39.44.76.89,1.13,1.35.11.13.21.27.32.4-.13-.17-.1-.13.08.11.18.24.36.48.54.73,2.78,3.81,5.12,8.18,8.61,11.41,1.73,1.61,5,.05,4.18-2.43-.74-2.24-1.99-4.19-3.25-6.16-1.11-1.74-1.82-3.18-2.55-5-1.46-3.63-2.85-7.65-5.61-10.54-2.22-2.33-5.76,1.21-3.54,3.54.52.55.7.8,1.2,1.63.46.75.86,1.53,1.24,2.32.79,1.65,1.39,3.17,2.08,4.89.76,1.88,1.58,3.67,2.67,5.39s2.3,3.35,2.93,5.26l4.18-2.43c-1.84-1.71-2.7-3.01-4.07-4.98-1.5-2.16-2.94-4.37-4.53-6.46-3.13-4.11-7.04-8.14-12.54-8.34-1.35-.05-2.5,1.18-2.5,2.5,0,1.4,1.15,2.45,2.5,2.5h0Z"/>
</svg>