<?xml version="1.0" encoding="UTF-8"?>
<svg id="Layer_1" data-name="Layer 1" xmlns="http://www.w3.org/2000/svg" viewBox="0 0 368 320.5">
  <defs>
    <style>
      .cls-1, .cls-2 {
        stroke-width: 0px;
      }

      .cls-2 {
        fill: #fff;
      }
    </style>
  </defs>
  <path class="cls-2" d="m204.51,0c54.49,0,108.99,0,163.49,0v320.5H0V0C53.01,0,106.05,0,159.09,0c-.23,1.73-.46,3.46-.68,5.18.28.07.56.14.84.21.31-1.8.62-3.59.93-5.39,1.09,0,2.18,0,3.27,0-.22,1.09-.53,2.16-.64,3.27-.3,2.95-.52,5.91-.77,8.87-.25,3.05-.95,6.19-.61,9.12.61,5.31,1.58,10.61,2.91,15.68.9,3.42,2.66,6.44,4.05,9.63.86,1.99,1.96,3.85,2.56,5.96.7,2.48-.04,4.05-1.97,4.75-1.21.44-2.5.46-3.73.81-2.1.59-4.37.79-6.22,2.06-2.66,1.83-3.15,5.42-2.69,9.24.26-1.14.42-2.31.79-3.35,1.17-3.36,3.48-4.48,5.96-5.15,2.74-.73,5.5-1.38,8.44-2.11.1,2.38.22,5.26.34,8.14.17-.02.34-.03.52-.05,1.7-5.21.12-10.39-.58-16.36,7.38,5.58,12.65,1.11,17.51-5.58-.43,5.93.79,10.82,3.12,15.25,2.74,5.19,6.22,8.6,11.24,8.83,5.69.27,11.39.82,15.74,6.79.09.12.29.1.52.18-.86-2.57-2.04-4.42-3.94-5.59-.8-.5-1.62-1.81-1.85-2.96-1.64-7.9-3.03-15.89-4.71-23.77-.71-3.32.35-7.32-2.48-10.38.98,6.25,1.87,12.02,2.8,17.78.93,5.74,1.91,11.47,2.94,17.59-2-.22-4.03-.4-6.05-.69-1.53-.22-2.34-1.52-2.6-3.48-.32-2.38-.61-4.76-.97-7.13-.2-1.32-.51-2.61-.76-3.91-.27.08-.54.17-.81.25.61,4.34,1.23,8.67,1.84,13.01-.16.11-.32.22-.48.33-.4-.81-1.13-1.59-1.17-2.43-.37-7.95-.6-15.9-.91-23.86-.12-3.01-.32-6.01-.48-9.01-.2.01-.41.02-.61.04-.12,7.26-.27,14.52-.36,21.78-.04,3.8-.02,7.61,1.51,11.05.18.41.11,1.02.24,2.43-2.05-1.38-4.11-1.95-5.21-3.64-4.81-7.42-6.9-15.86-3.84-26.01-1.34,2.16-2.34,3.93-3.46,5.54-1.15,1.65-2.44,3.13-3.63,4.73-4.99,6.66-11.36,3.78-14.9-1.53-4.27-6.4-6.87-14.33-6.78-22.94.08-7.74,1.29-15.46,2-23.18,1.45,0,2.91,0,4.36,0,2.42,1.85,4.85,3.67,7.25,5.55,1.85,1.45,3.86,2.68,5.47,4.52,2.18,2.51,3.87,5.81,6.1,8.21,1.5,1.6,3.53,2.86,5.42,3.12,1.84.25,2.82.58,2.41,3.11-.42,2.58-1.13,5.08-1.79,7.58-.32,1.2-.67,2.47-1.96,2.39-.2-.01-.42.75-.63,1.16.31.26.74.85.92.74.73-.46,1.7-.93,2-1.77.95-2.66,1.84-5.43,2.37-8.28.48-2.56-.25-4.89-1.85-6.68-.78-.87-1.64-1.84-2.05-3.01-1.1-3.1-3.57-3.73-5.3-5.65-.04-.04-.2.12-.76.5,1.15,2.02,2.24,3.94,3.34,5.87-.7,0-1.25-.27-1.63-.78-1.59-2.09-3.25-4.12-4.65-6.42-2.01-3.31-4.36-5.59-7.53-6.64-1.78-.59-3.9-.85-4.95-3.51C182.1,0,192.39,0,202.69,0c1.15,4.13,2.31,8.25,3.46,12.38.08,0,.15.01.23.02-.62-4.13-1.25-8.26-1.87-12.39Zm28.49,273.69c-.1-.16-.19-.32-.29-.48-.45.44-.91.85-1.34,1.31-2.77,2.98-5.42,6.19-8.33,8.91-3.99,3.73-8,7.57-12.34,10.47-3.62,2.42-7.66,3.99-11.64,5.13-2.8.8-5.5,1.53-7.99,3.47-5.35,4.17-11.06,7.32-17.09,9.04-4.43,1.26-8.77-.45-12.86-2.8-5.63-3.23-8.91-10.63-8.54-18.77.46-10.19,1.71-20.19,3.86-30,1.48-6.74,2.78-13.4,7.04-18.42,3.03-3.58,5.29-8.33,5.98-13.82.5-4,2.01-6.81,4.24-9.22.29-.32.51-.77.76-1.16l-.18-.47c-.98.36-1.97.72-3.36,1.23,1.85-12.55,3.65-24.73,5.43-36.81.85.44,1.82,1.35,2.8,1.36,1.96.02,3.92-.41,5.88-.74,3.17-.53,6.33-1.34,9.52-1.61,2.93-.25,5.88.13,8.82.07,1.07-.02,1.65.37,2.1,1.68.99,2.85,2.17,5.59,3.18,8.43,4.12,11.61,5.63,23.8,3.32,36.33-1.31,7.09-3.56,13.88-5.48,20.76-.67,2.4-1.39,4.85-2.45,6.96-6.25,12.5-12.88,24.61-20.43,35.8-.56.83-1.07,1.81-1.35,2.84-.26.97-.17,2.1-.23,3.16,1.25-1.55,1.91-3.26,2.8-4.71,4.1-6.68,8.43-13.11,12.33-19.98,2.45-4.31,5.47-7.15,9.1-9.18,6-3.36,12.34-5.03,18.6-7.19,5.53-1.9,11.21-2.86,15.55-9.62,5.57-8.69,10.92-6.14,17.22.91.3.34.98.35,1.4.18,2.18-.89,4.32-1.97,6.51-2.84,3.68-1.46,7.39-2.81,11.08-4.21.08.26.16.52.24.78-.75.4-1.49.84-2.25,1.2-1.42.69-1.49.89-.78,2.75.64-.64,1.29-1.21,1.88-1.89,2.3-2.65,4.27-5.69,7.4-7.02,7.48-3.19,14.34-8.19,20.66-14.37,6.72-6.57,13.68-12.77,19.41-20.98,1.07-1.53,2.31-2.85,3.55-4.14.48-.5,1.25-1.03,1.76-.87,2.84.89,4.91-.99,6.92-3.14,2.35-2.53,4.57-5.29,7.03-7.63,2.64-2.52,5.37-4.97,8.28-6.85,1.85-1.2,3.53-2.44,4.77-4.59.97-1.69,2.24-3.35,2.64-5.29,1.04-5.12,1.63-10.37,1.43-15.76-.08-2.04.69-4.15.56-6.17-.09-1.47-.78-3.49-1.66-4.09-.98-.67-2.51-.24-3.73.14-.68.21-1.26,1.22-1.78,1.99-4.18,6.18-9.18,11.02-14.46,15.28-4.19,3.38-7.66,7.74-10.31,13.04-2.13,4.24-4.95,7.08-8.19,9.22-6.12,4.04-12.26,8.07-18.57,11.52-9.72,5.32-19.6,10.08-29.38,15.2-6.51,3.4-13.26,2.46-19.92,1.86-6.51-.59-12.9-.83-19.18,1.97-.72.32-1.52.33-2.28.48-.04-.23-.08-.45-.12-.68,1.85-1.65,3.21-4.06,5.71-4.66,7.83-1.86,15.44-4.79,22.52-9.75,9.43-6.61,18.39-14.21,26.69-23.19,1.86-2.02,3.99-3.63,6.07-5.25.49-.39,1.41-.35,1.95,0,3.17,2.05,6.24,1.98,9.09-.79,2.81-2.73,4.94-6.35,4.44-11.22-.72-6.98.63-13.25,2.71-19.45,1.64-4.89,2.91-9.95,2.25-15.43-.49-4.05-1.11-8.07-1.7-12.1-.41-2.75-1.64-4.72-3.14-4.72-1.84,0-2.72,1.88-3.42,3.78-.55,1.51-.74,3.29-1.37,4.72-2.92,6.68-5.82,13.4-8.98,19.88-1.94,3.98-4.13,7.81-6.56,11.26-5.08,7.19-11.41,11.86-18.46,14.78-4.62,1.91-9.25,3.76-13.9,5.51-7.91,2.97-15.82,5.94-23.78,8.69-4.15,1.44-8.39,2.42-12.59,3.63-.76.22-1.52.52-2.27.78-.03-.13-.06-.26-.09-.38l1.21-1.01c-.79-.36-1.47-.25-2.12-.01-3.28,1.18-6.59,1.97-10.02,1.74-1.32-.09-2.65.25-3.97.33-1.81.11-3.69.63-5.4.14-2.81-.81-5.39.16-8.05.81-2.19.54-4.39,1.11-6.6,1.34-.8.08-1.88-.5-2.43-1.28-1.52-2.15-2.83-4.57-4.23-6.89-.87-1.44-1.65-2.98-2.63-4.28-1.62-2.17-3.78-1.74-5.83-1.87-.9-.06-1.79-.48-2.69-.74.03-.43.06-.86.09-1.29,2.08-.15,4.16-.31,6.52-.48-2.24-2.51-5.09.68-7.32-2.39,2.04-.41,3.66-.63,5.23-1.08,1.88-.54,3.66-.97,5.15,1.29.2.3.79.13,1.61.23-.9-2.04-1.6-3.47-3.07-3.4-3.17.17-6.34.41-9.49.77-.42.05-.98.84-1.16,1.46-2.53,8.8-4.95,17.67-7.53,26.45-1.08,3.67-2.37,7.24-3.75,10.73-2.42,6.12-4.92,12.19-7.52,18.17-.4.91-1.5,1.69-2.32,1.78-4.39.46-8.8.71-13.21.97-.6.04-1.22-.22-2.16-.41.6-1.06.93-1.71,1.31-2.31,1.74-2.78,3.79-5.31,5.19-8.37,2.24-4.88,5.14-8.62,8.8-11.49,3.46-2.72,6.86-5.59,10.35-8.44.3.86.52,1.48.92,2.62.14-1.48.08-2.41.31-3.2,1.5-5.11,3.14-10.14,4.57-15.28.96-3.44,2.79-6.63,1.93-10.7-.49-2.32-.76-4.72-1.23-7.05-1.39-6.91-2.83-13.79-4.23-20.69-.43-2.12-.8-4.27-1.26-6.72,1.12.19,1.83.31,2.54.44.09-.16.19-.32.28-.49-4.43-3.25-6.42-8.89-8.51-14.58.04,1.95.24,3.84.83,5.46.64,1.75.47,3.15-.1,4.8-1.54,4.46-3.11,8.92-4.39,13.51-.97,3.48-1.5,7.17-2.22,10.76.18.07.36.15.54.22,2.31-8.33,4.63-16.66,7.16-25.77,1.04,1.91,2.08,3.09,2.39,4.55,1.51,7.03,2.9,14.12,4.17,21.24.5,2.81,1.14,5.77-1.07,8.21-1.03,1.14-1.63,2.98-2.42,4.51.2.21.41.41.61.62,1.22-2.07,2.44-4.14,4.01-6.82.2.56.47,1.05.54,1.57.29,2.37.85,4.79.72,7.13-.4,7.09-2.68,13.49-4.59,20.01-.78,2.67-2.1,4.39-3.91,5.73-2.16,1.61-4.23,3.43-6.36,5.11-1.26,1-2.57,1.9-3.85,2.85-.16-.17-.33-.35-.49-.52,6-8.68,7.66-20.02,10.86-30.44-.23.24-.42.53-.53.86-1.12,3.46-2.27,6.89-3.32,10.38-2.22,7.42-5.4,14.07-9.06,20.33-3.71,6.34-6.48,13.58-10.86,19.29-1.27,1.65-2.01,4.18-2.66,6.47-1.36,4.74-3.65,8.1-7.34,9.42-2.03.72-4.15,1.04-6.25,1.4-.58.1-1.22-.27-2.18-.52.8-.84,1.25-1.32,1.7-1.8-.1-.24-.21-.48-.31-.72-1.25.81-2.7,1.32-3.7,2.5-1.66,1.95-3.69,1.8-5.58,2.42-.16.05-.41-.41-.55-.56,1.41-1.67,2.74-3.24,4.06-4.81-1.34.68-2.51,1.64-3.58,2.78-1.2,1.28-2.43,1.87-4.37.34.74-.49,1.47-.99,2.21-1.48-.14-.24-.27-.47-.41-.71-.92.45-1.84.91-2.76,1.36-.08-.2-.16-.4-.24-.6,1.94-1.96,3.87-3.91,5.92-5.98-.41-.43-.7-.74-1.02-1.07,1.11-2.29,2.8-3.08,4.62-3.55,3.49-.9,6.97-1.82,10.47-2.68,2.28-.56,3.87-2.37,4.83-5.01,1.37-3.75,2.61-7.59,3.78-11.46,2.06-6.81,4.06-13.65,6.01-20.52,2.3-8.11,5.22-15.78,8.81-23,.42-.84.79-1.72,1.19-2.58-.53.02-.73.3-.91.59-4.96,7.82-7.94,17.08-10.78,26.44-1.79,5.9-3.46,11.86-5.18,17.79-.49,1.67-1.38,2.51-2.74,2.69-4.69.63-9.38,1.41-14.07,1.99-10.93,1.36-22,1.22-32.63,5.73-2.72,1.15-5.17-1.71-5.19-5.47,0-1.19-.2-2.42-.48-3.55-.72-2.85-1.59-3.6-3.79-3.25-2.22.36-4.45.71-6.63,1.35-1.35.39-2.24.18-3.18-1.29-.71-1.11-1.75-2.15-2.78-2.53-4.94-1.79-9.96-3.2-14.49-6.58-.47-.35-1.18-.23-1.77-.15-.84.11-1.67.4-2.51.56-4.48.81-8.28,3.44-10.74,8.49-1.92,3.95-3.69,8.21-4.79,12.65-2.57,10.38-3.62,20.92.26,31.3,1.82,4.88,3.88,9.65,7.12,12.99,5.18,5.35,10.95,9.2,17.65,9.86,3.25.32,6.35.98,8.35,5.02.4.8.89,1.54,1.41,2.2,2.61,3.34,5.2,6.72,7.89,9.95,3.23,3.88,6.66,7.48,9.81,11.46,2.84,3.6,5.37,7.63,8.14,11.35,7.45,10.03,16.55,14.95,27.09,14.71,5.42-.13,10.34-2.39,14.13-7.98.52-.76,1.13-1.73,1.81-1.91,3.89-1.08,7.79-2.61,11.72-2.77,7.99-.33,15.85-.85,23.06-6.17.35-.25,1.18.19,1.58.64,1.59,1.8,2.92,4.1,4.66,5.52,2.23,1.81,4.67,3.53,7.19,4.24,3.38.95,7.16,2.1,10.34.99,4.89-1.71,9.43-5.26,14.11-8.05,1.69-1.01,3.32-2.23,5.05-3.04.92-.43,2.08.07,3.02-.31,3.58-1.44,7.17-2.91,10.67-4.67,6.36-3.21,11.55-8.99,16.9-14.34,2.62-2.61,4.95-5.73,7.41-8.62Zm-9.95-120.6c-.01-.3-.03-.6-.04-.89-1.02,0-2.05-.13-3.05.03-1.73.27-3.46.59-5.15,1.11-2.17.66-4.33,1.39-6.43,2.35-1.47.67-2.8,1.84-4.24,2.66-.44.25-1.01.06-1.52.06,0-.61-.08-1.26.02-1.84,2.38-12.92,4.8-25.84,7.17-38.77.14-.76.02-1.6.02-2.4-.21-.05-.42-.1-.63-.15-.57,2.32-1.23,4.6-1.69,6.96-1.25,6.38-2.49,12.78-3.61,19.2-.92,5.26-1.61,10.58-2.52,15.84-.16.9-.78,2-1.4,2.37-3.31,1.94-6.66,3.8-10.06,5.43-1.43.68-3.15,1.34-4.52.87-2.2-.76-5.09-7.7-4.88-10.88.21-3.12-.24-5.97-1.6-8.49-1.1-2.05-1.06-4.14-.64-6.45.45-2.5.73-5.07,1.07-7.6.29-2.14-.33-3.84-1.6-5.06-2.26-2.18-2.96-5.08-2.64-8.69.41-4.63.72-9.28.97-13.93.1-1.89.32-4-1.73-4.61-.28-.08-.53-1-.61-1.57-.51-3.87-.81-4.13-3.33-2.6-.72-3.62-3-.77-4.34-2.1-.96,3.07-1.85,5.94-2.72,8.73-2.35-.32-3.21.72-3.18,3.57,0,.72.07,1.46.2,2.16.52,2.75.31,5.36-.35,8.07-.43,1.76-.67,3.97-.25,5.65,1.11,4.43,2.43,8.8,4.02,12.96,1.25,3.28,1.3,6.38.65,9.8-.7,3.71-1.17,7.49-1.8,11.22-.34,2.03.69,2.16,1.56,1.82,1.32-.51,2.54-1.45,4.21-2.46-1.75-.53-2.96-.89-4.27-1.29,2.47-.86,4.67-1.73,6.92-2.32.54-.14,1.33.51,1.82,1.08,1.76,2.08,3.44,4.28,5.17,6.46v-10.77c1.75,2.99.93,6,1.13,8.81.05.78,0,1.69.29,2.29,1.05,2.16,2.13,4.32,3.38,6.26.56.86,1.68,1.89,2.35,1.68,4.23-1.31,8.46-2.74,12.59-4.54,3.31-1.44,6.4-3.78,9.72-5.14,3.9-1.6,7.95-2.58,11.93-3.81,1.2-.37,2.4-.72,3.6-1.07ZM159.19,7.74c-.14,0-.27-.02-.41-.02-.1.33-.26.66-.31,1-.81,6.44-.54,12.83.37,19.21.4,2.83.88,5.72.82,8.57-.12,5.95-.6,11.89-.88,17.83-.05.99.18,2.01.29,3.02.25-.01.51-.02.76-.03.18-2.01.49-4.01.53-6.03.14-6.89.51-13.82.18-20.67-.31-6.4-1.56-12.7-1.15-19.2.08-1.21-.13-2.45-.2-3.68Zm-3.05,63.94c-.21-.04-.42-.08-.63-.13-.53,3.59-1.05,7.18-1.6,10.76-.7,4.53-1.84,8.72-4.08,12.44-1.99,3.3-3.6,7.01-5.28,10.63-.36.77-.28,1.91-.4,2.88l.54.12c.29-.69.55-1.4.87-2.06,1.82-3.75,3.7-7.45,5.47-11.24,1.27-2.71,2.82-5.34,3.53-8.32.87-3.63,1.01-7.57,1.42-11.39.13-1.22.1-2.47.15-3.7Zm65.4,102.88c.06.09.11.18.17.26.64-.24,1.28-.45,1.91-.72,5.69-2.43,10.96-5.7,13.33-13.74.48-1.64.36-3.73.19-5.55-.2-2.13-.76-4.2-1.19-6.29-.47-2.29-.96-4.56-1.44-6.85-.14.07-.29.13-.43.2.71,4.71,1.45,9.42,2.13,14.14.45,3.08-1.41,8.73-3.44,10.31-2.61,2.03-5.26,3.95-7.91,5.89-1.1.81-2.22,1.56-3.33,2.34Zm1.06-95.26c-.19.08-.38.15-.58.23,2.53,11.08,5.07,22.15,7.6,33.23-.14-12.06-3.96-22.6-7.02-33.46Zm-18.11,18.54c2.55,6.23,5.09,12.42,7.67,18.71.75-4.25-4-16.91-7.67-18.71Zm8.22,20.94c-.22.08-.44.16-.65.25,1.23,8.88,2.71,17.67,5.7,25.91-1.68-8.72-3.36-17.44-5.04-26.16Zm19.86,15.26l.57-.07c-.37-3.21-.74-6.43-1.11-9.64-.2.04-.4.07-.61.11.38,3.2.76,6.4,1.14,9.6Zm-61.71,21.03c.85,1.18,1.2,3.22,3.17,3.33-.93-1.95-1.35-3.81-3.17-3.33Zm21.66-125.3c2.07-.93,2.3-1.95.91-4.04-.32,1.43-.57,2.55-.91,4.04Z"/>
  <path class="cls-1" d="m165.26,0c-.71,7.73-1.92,15.44-2,23.18-.08,8.61,2.52,16.54,6.78,22.94,3.54,5.31,9.92,8.19,14.9,1.53,1.2-1.6,2.48-3.08,3.63-4.73,1.12-1.62,2.12-3.38,3.46-5.54-3.06,10.15-.98,18.58,3.84,26.01,1.1,1.69,3.16,2.27,5.21,3.64-.13-1.41-.06-2.02-.24-2.43-1.54-3.44-1.56-7.25-1.51-11.05.08-7.26.23-14.52.36-21.78.2-.01.41-.02.61-.04.16,3,.37,6.01.48,9.01.31,7.95.54,15.91.91,23.86.04.84.76,1.62,1.17,2.43.16-.11.32-.22.48-.33-.61-4.34-1.23-8.67-1.84-13.01.27-.08.54-.17.81-.25.26,1.3.57,2.59.76,3.91.36,2.37.64,4.75.97,7.13.26,1.96,1.07,3.26,2.6,3.48,2.02.29,4.05.47,6.05.69-1.02-6.12-2.01-11.85-2.94-17.59-.93-5.76-1.82-11.53-2.8-17.78,2.82,3.06,1.77,7.06,2.48,10.38,1.69,7.88,3.07,15.87,4.71,23.77.24,1.15,1.05,2.46,1.85,2.96,1.9,1.17,3.08,3.02,3.94,5.59-.22-.07-.43-.05-.52-.18-4.35-5.97-10.04-6.53-15.74-6.79-5.02-.23-8.5-3.65-11.24-8.83-2.34-4.43-3.55-9.31-3.12-15.25-4.86,6.69-10.12,11.16-17.51,5.58.7,5.97,2.27,11.15.58,16.36-.17.02-.34.03-.52.05-.12-2.88-.24-5.76-.34-8.14-2.94.73-5.7,1.38-8.44,2.11-2.48.66-4.8,1.79-5.96,5.15-.36,1.04-.53,2.21-.79,3.35-.46-3.82.02-7.4,2.69-9.24,1.85-1.27,4.12-1.47,6.22-2.06,1.23-.35,2.52-.37,3.73-.81,1.93-.7,2.67-2.27,1.97-4.75-.6-2.12-1.7-3.98-2.56-5.96-1.39-3.19-3.15-6.21-4.05-9.63-1.33-5.07-2.3-10.37-2.91-15.68-.34-2.93.37-6.08.61-9.12.24-2.96.46-5.92.77-8.87.11-1.11.42-2.18.64-3.27.61,0,1.21,0,1.82,0Z"/>
  <path class="cls-1" d="m171.8,0c1.05,2.66,3.17,2.92,4.95,3.51,3.16,1.05,5.52,3.33,7.53,6.64,1.4,2.31,3.06,4.33,4.65,6.42.38.5.93.79,1.63.78-1.09-1.92-2.19-3.85-3.34-5.87.56-.37.72-.54.76-.5,1.73,1.93,4.2,2.55,5.3,5.65.42,1.18,1.28,2.14,2.05,3.01,1.59,1.79,2.33,4.12,1.85,6.68-.53,2.85-1.42,5.61-2.37,8.28-.3.84-1.27,1.31-2,1.77-.18.11-.6-.47-.92-.74.21-.41.43-1.17.63-1.16,1.3.07,1.65-1.19,1.96-2.39.66-2.5,1.37-5,1.79-7.58.41-2.53-.57-2.86-2.41-3.11-1.88-.25-3.92-1.51-5.42-3.12-2.24-2.4-3.92-5.7-6.1-8.21-1.6-1.85-3.61-3.08-5.47-4.52C174.47,3.67,172.04,1.85,169.62,0c.73,0,1.45,0,2.18,0Z"/>
  <path class="cls-1" d="m204.51,0c.62,4.13,1.25,8.26,1.87,12.39-.08,0-.15-.01-.23-.02C205,8.25,203.84,4.13,202.69,0c.61,0,1.21,0,1.82,0Z"/>
  <path class="cls-1" d="m160.18,0c-.31,1.8-.62,3.59-.93,5.39-.28-.07-.56-.14-.84-.21.23-1.73.46-3.46.68-5.18.36,0,.73,0,1.09,0Z"/>
  <path class="cls-1" d="m233,273.69c-2.46,2.89-4.79,6.01-7.41,8.62-5.36,5.34-10.54,11.13-16.9,14.34-3.5,1.77-7.09,3.23-10.67,4.67-.95.38-2.1-.12-3.02.31-1.74.81-3.36,2.03-5.05,3.04-4.68,2.79-9.21,6.34-14.11,8.05-3.18,1.11-6.96-.04-10.34-.99-2.52-.71-4.96-2.42-7.19-4.24-1.74-1.42-3.08-3.72-4.66-5.52-.4-.45-1.23-.89-1.58-.64-7.21,5.31-15.07,5.84-23.06,6.17-3.93.16-7.83,1.69-11.72,2.77-.68.19-1.29,1.15-1.81,1.91-3.79,5.59-8.71,7.85-14.13,7.98-10.55.24-19.64-4.68-27.09-14.71-2.76-3.72-5.29-7.75-8.14-11.35-3.15-3.99-6.58-7.59-9.81-11.46-2.69-3.23-5.28-6.61-7.89-9.95-.52-.67-1.02-1.4-1.41-2.2-2-4.04-5.1-4.7-8.35-5.02-6.7-.66-12.47-4.51-17.65-9.86-3.24-3.34-5.29-8.11-7.12-12.99-3.88-10.38-2.83-20.93-.26-31.3,1.1-4.45,2.87-8.7,4.79-12.65,2.46-5.05,6.26-7.67,10.74-8.49.84-.15,1.66-.45,2.51-.56.59-.07,1.3-.2,1.77.15,4.54,3.39,9.56,4.79,14.49,6.58,1.03.37,2.07,1.42,2.78,2.53.94,1.47,1.83,1.68,3.18,1.29,2.18-.64,4.41-.99,6.63-1.35,2.2-.35,3.07.4,3.79,3.25.29,1.13.48,2.36.48,3.55.03,3.77,2.47,6.63,5.19,5.47,10.63-4.51,21.7-4.37,32.63-5.73,4.7-.58,9.38-1.37,14.07-1.99,1.36-.18,2.26-1.02,2.74-2.69,1.73-5.93,3.39-11.89,5.18-17.79,2.84-9.35,5.82-18.62,10.78-26.44.19-.29.39-.57.91-.59-.4.86-.77,1.74-1.19,2.58-3.59,7.22-6.5,14.89-8.81,23-1.95,6.87-3.95,13.71-6.01,20.52-1.17,3.87-2.41,7.71-3.78,11.46-.96,2.64-2.56,4.45-4.83,5.01-3.49.86-6.98,1.79-10.47,2.68-1.82.47-3.51,1.26-4.62,3.55.31.33.61.64,1.02,1.07-2.05,2.07-3.99,4.03-5.92,5.98.08.2.16.4.24.6.92-.45,1.84-.91,2.76-1.36.14.24.27.47.41.71-.74.49-1.47.99-2.21,1.48,1.95,1.53,3.17.93,4.37-.34,1.07-1.14,2.25-2.09,3.58-2.78-1.33,1.57-2.65,3.13-4.06,4.81.14.15.4.61.55.56,1.89-.63,3.92-.48,5.58-2.42,1.01-1.18,2.45-1.69,3.7-2.5.1.24.21.48.31.72-.45.48-.91.96-1.7,1.8.97.25,1.6.62,2.18.52,2.09-.36,4.21-.68,6.25-1.4,3.69-1.31,5.98-4.68,7.34-9.42.66-2.29,1.4-4.82,2.66-6.47,4.38-5.71,7.15-12.95,10.86-19.29,3.67-6.27,6.84-12.91,9.06-20.33,1.05-3.49,2.2-6.93,3.32-10.38.11-.34.29-.63.53-.86-3.2,10.42-4.86,21.76-10.86,30.44.16.17.33.35.49.52,1.29-.95,2.59-1.85,3.85-2.85,2.13-1.68,4.2-3.5,6.36-5.11,1.81-1.35,3.13-3.06,3.91-5.73,1.91-6.53,4.18-12.92,4.59-20.01.13-2.34-.43-4.76-.72-7.13-.06-.53-.34-1.01-.54-1.57-1.58,2.68-2.79,4.75-4.01,6.82-.2-.21-.41-.41-.61-.62.79-1.52,1.39-3.36,2.42-4.51,2.2-2.44,1.57-5.41,1.07-8.21-1.27-7.12-2.66-14.2-4.17-21.24-.31-1.46-1.36-2.63-2.39-4.55-2.53,9.11-4.85,17.44-7.16,25.77-.18-.07-.36-.15-.54-.22.72-3.6,1.26-7.29,2.22-10.76,1.28-4.6,2.85-9.05,4.39-13.51.57-1.65.74-3.05.1-4.8-.6-1.63-.79-3.51-.83-5.46,2.09,5.69,4.08,11.33,8.51,14.58-.09.16-.19.32-.28.49-.71-.12-1.42-.24-2.54-.44.46,2.45.83,4.6,1.26,6.72,1.4,6.9,2.85,13.79,4.23,20.69.47,2.33.74,4.73,1.23,7.05.86,4.08-.97,7.26-1.93,10.7-1.43,5.14-3.07,10.17-4.57,15.28-.23.79-.18,1.72-.31,3.2-.4-1.14-.62-1.76-.92-2.62-3.49,2.85-6.89,5.72-10.35,8.44-3.66,2.87-6.56,6.61-8.8,11.49-1.4,3.06-3.44,5.59-5.19,8.37-.38.6-.71,1.25-1.31,2.31.94.19,1.55.44,2.16.41,4.4-.27,8.81-.51,13.21-.97.82-.09,1.93-.87,2.32-1.78,2.6-5.98,5.11-12.05,7.52-18.17,1.38-3.49,2.67-7.06,3.75-10.73,2.58-8.78,5-17.64,7.53-26.45.18-.61.73-1.41,1.16-1.46,3.16-.36,6.33-.6,9.49-.77,1.48-.08,2.17,1.36,3.07,3.4-.83-.1-1.42.06-1.61-.23-1.49-2.26-3.27-1.83-5.15-1.29-1.57.45-3.19.67-5.23,1.08,2.22,3.07,5.08-.13,7.32,2.39-2.36.17-4.44.33-6.52.48-.03.43-.06.86-.09,1.29.9.26,1.79.68,2.69.74,2.05.13,4.2-.3,5.83,1.87.97,1.3,1.76,2.85,2.63,4.28,1.4,2.31,2.71,4.73,4.23,6.89.55.78,1.63,1.37,2.43,1.28,2.21-.23,4.41-.8,6.6-1.34,2.66-.65,5.24-1.62,8.05-.81,1.71.49,3.6-.03,5.4-.14,1.33-.08,2.66-.42,3.97-.33,3.43.23,6.74-.56,10.02-1.74.65-.24,1.33-.34,2.12.01l-1.21,1.01c.03.13.06.26.09.38.76-.26,1.51-.56,2.27-.78,4.2-1.21,8.44-2.19,12.59-3.63,7.95-2.76,15.87-5.73,23.78-8.69,4.65-1.75,9.28-3.6,13.9-5.51,7.05-2.92,13.37-7.59,18.46-14.78,2.44-3.45,4.63-7.28,6.56-11.26,3.16-6.48,6.05-13.2,8.98-19.88.63-1.44.81-3.21,1.37-4.72.7-1.9,1.58-3.78,3.42-3.78,1.49,0,2.73,1.97,3.14,4.72.59,4.03,1.22,8.05,1.7,12.1.66,5.48-.61,10.54-2.25,15.43-2.08,6.2-3.44,12.47-2.71,19.45.5,4.87-1.63,8.49-4.44,11.22-2.84,2.77-5.92,2.84-9.09.79-.54-.35-1.46-.39-1.95,0-2.08,1.62-4.2,3.24-6.07,5.25-8.29,8.98-17.25,16.58-26.69,23.19-7.08,4.96-14.69,7.89-22.52,9.75-2.5.59-3.86,3-5.71,4.66.04.23.08.45.12.68.76-.15,1.56-.16,2.28-.48,6.28-2.79,12.68-2.56,19.18-1.97,6.66.61,13.41,1.55,19.92-1.86,9.78-5.11,19.66-9.88,29.38-15.2,6.31-3.45,12.45-7.48,18.57-11.52,3.24-2.14,6.06-4.97,8.19-9.22,2.66-5.3,6.12-9.66,10.31-13.04,5.28-4.26,10.28-9.1,14.46-15.28.52-.77,1.11-1.78,1.78-1.99,1.22-.38,2.75-.81,3.73-.14.87.6,1.56,2.62,1.66,4.09.13,2.02-.64,4.13-.56,6.17.2,5.39-.4,10.64-1.43,15.76-.39,1.94-1.66,3.6-2.64,5.29-1.24,2.15-2.91,3.39-4.77,4.59-2.91,1.88-5.64,4.33-8.28,6.85-2.45,2.34-4.67,5.1-7.03,7.63-2.01,2.16-4.08,4.03-6.92,3.14-.52-.16-1.28.37-1.76.87-1.24,1.29-2.48,2.61-3.55,4.14-5.74,8.21-12.7,14.41-19.41,20.98-6.32,6.19-13.18,11.18-20.66,14.37-3.13,1.34-5.1,4.37-7.4,7.02-.59.68-1.24,1.25-1.88,1.89-.71-1.87-.64-2.06.78-2.75.76-.37,1.5-.8,2.25-1.2-.08-.26-.16-.52-.24-.78-3.7,1.4-7.4,2.75-11.08,4.21-2.19.87-4.32,1.95-6.51,2.84-.42.17-1.1.16-1.4-.18-6.3-7.05-11.65-9.6-17.22-.91-4.34,6.76-10.02,7.72-15.55,9.62-6.26,2.16-12.6,3.83-18.6,7.19-3.63,2.03-6.65,4.87-9.1,9.18-3.9,6.87-8.24,13.3-12.33,19.98-.89,1.45-1.55,3.16-2.8,4.71.06-1.06-.02-2.19.23-3.16.27-1.03.79-2.01,1.35-2.84,7.54-11.19,14.18-23.3,20.43-35.8,1.05-2.11,1.78-4.56,2.45-6.96,1.92-6.88,4.17-13.67,5.48-20.76,2.31-12.52.8-24.71-3.32-36.33-1.01-2.84-2.19-5.58-3.18-8.43-.46-1.31-1.04-1.7-2.1-1.68-2.94.06-5.89-.32-8.82-.07-3.18.27-6.34,1.08-9.52,1.61-1.95.32-3.92.76-5.88.74-.98,0-1.95-.92-2.8-1.36-1.78,12.08-3.58,24.26-5.43,36.81,1.39-.51,2.37-.87,3.36-1.23l.18.47c-.25.39-.47.84-.76,1.16-2.22,2.41-3.74,5.22-4.24,9.22-.69,5.49-2.95,10.24-5.98,13.82-4.25,5.02-5.56,11.68-7.04,18.42-2.15,9.81-3.4,19.81-3.86,30-.37,8.14,2.91,15.54,8.54,18.77,4.09,2.35,8.44,4.06,12.86,2.8,6.03-1.72,11.74-4.87,17.09-9.04,2.49-1.94,5.19-2.68,7.99-3.47,3.98-1.13,8.02-2.7,11.64-5.13,4.34-2.9,8.34-6.73,12.34-10.47,2.91-2.72,5.56-5.93,8.33-8.91.43-.46.89-.88,1.34-1.31.1.16.19.32.29.48Zm-22.8-93.89c0-.19-.01-.38-.02-.57-.86.06-1.74.03-2.59.23-.3.07-.53.68-.79,1.04.37.24.81.77,1.11.65.79-.3,1.53-.88,2.28-1.35Z"/>
  <path class="cls-1" d="m223.05,153.09c-1.2.36-2.4.7-3.6,1.07-3.98,1.24-8.03,2.21-11.93,3.81-3.32,1.36-6.41,3.7-9.72,5.14-4.13,1.8-8.36,3.23-12.59,4.54-.67.21-1.79-.82-2.35-1.68-1.26-1.94-2.34-4.1-3.38-6.26-.29-.6-.23-1.52-.29-2.29-.2-2.81.62-5.82-1.13-8.81v10.77c-1.73-2.18-3.41-4.38-5.17-6.46-.49-.57-1.28-1.22-1.82-1.08-2.24.59-4.44,1.46-6.92,2.32,1.31.4,2.52.76,4.27,1.29-1.67,1-2.89,1.94-4.21,2.46-.87.34-1.9.22-1.56-1.82.63-3.73,1.1-7.52,1.8-11.22.64-3.41.6-6.51-.65-9.8-1.59-4.16-2.92-8.53-4.02-12.96-.42-1.68-.17-3.89.25-5.65.66-2.72.87-5.32.35-8.07-.13-.7-.19-1.44-.2-2.16-.03-2.86.83-3.89,3.18-3.57.87-2.79,1.76-5.66,2.72-8.73,1.34,1.33,3.62-1.53,4.34,2.1,2.52-1.53,2.82-1.27,3.33,2.6.08.57.33,1.49.61,1.57,2.05.61,1.84,2.73,1.73,4.61-.25,4.65-.56,9.3-.97,13.93-.32,3.6.38,6.51,2.64,8.69,1.27,1.22,1.89,2.92,1.6,5.06-.34,2.54-.61,5.1-1.07,7.6-.42,2.31-.46,4.4.64,6.45,1.35,2.52,1.81,5.37,1.6,8.49-.21,3.18,2.68,10.12,4.88,10.88,1.37.47,3.1-.19,4.52-.87,3.4-1.62,6.75-3.48,10.06-5.43.62-.36,1.24-1.46,1.4-2.37.91-5.26,1.61-10.59,2.52-15.84,1.12-6.43,2.35-12.82,3.61-19.2.46-2.35,1.12-4.64,1.69-6.96.21.05.42.1.63.15,0,.8.12,1.65-.02,2.4-2.38,12.93-4.79,25.84-7.17,38.77-.11.58-.02,1.22-.02,1.84.51,0,1.09.18,1.52-.06,1.44-.82,2.77-1.99,4.24-2.66,2.1-.96,4.27-1.69,6.43-2.35,1.69-.51,3.42-.84,5.15-1.11,1.01-.15,2.03-.03,3.05-.03.01.3.03.6.04.89Z"/>
  <path class="cls-1" d="m159.19,7.74c.08,1.23.28,2.47.2,3.68-.41,6.5.84,12.81,1.15,19.2.33,6.86-.04,13.78-.18,20.67-.04,2.01-.34,4.02-.53,6.03-.25.01-.51.02-.76.03-.1-1.01-.33-2.02-.29-3.02.28-5.95.75-11.88.88-17.83.06-2.85-.42-5.74-.82-8.57-.91-6.39-1.18-12.78-.37-19.21.04-.35.2-.67.31-1,.14,0,.27.02.41.02Z"/>
  <path class="cls-1" d="m156.14,71.67c-.04,1.23-.02,2.48-.15,3.7-.41,3.82-.55,7.76-1.42,11.39-.71,2.97-2.26,5.61-3.53,8.32-1.78,3.78-3.65,7.49-5.47,11.24-.32.66-.58,1.37-.87,2.06l-.54-.12c.12-.97.04-2.11.4-2.88,1.68-3.62,3.29-7.33,5.28-10.63,2.24-3.72,3.38-7.91,4.08-12.44.55-3.58,1.07-7.17,1.6-10.76.21.04.42.08.63.13Z"/>
  <path class="cls-1" d="m221.54,174.56c1.11-.78,2.23-1.54,3.33-2.34,2.64-1.94,5.3-3.86,7.91-5.89,2.03-1.58,3.88-7.23,3.44-10.31-.69-4.72-1.42-9.43-2.13-14.14.14-.07.29-.13.43-.2.48,2.28.97,4.56,1.44,6.85.43,2.09.99,4.16,1.19,6.29.18,1.82.29,3.91-.19,5.55-2.37,8.04-7.64,11.31-13.33,13.74-.63.27-1.27.48-1.91.72-.06-.09-.11-.18-.17-.26Z"/>
  <path class="cls-1" d="m222.59,79.3c3.06,10.86,6.88,21.4,7.02,33.46-2.53-11.08-5.07-22.15-7.6-33.23.19-.08.38-.15.58-.23Z"/>
  <path class="cls-1" d="m204.48,97.84c3.67,1.8,8.42,14.45,7.67,18.71-2.58-6.28-5.11-12.48-7.67-18.71Z"/>
  <path class="cls-1" d="m212.7,118.78c1.68,8.72,3.36,17.44,5.04,26.16-2.99-8.24-4.47-17.03-5.7-25.91.22-.08.44-.16.65-.25Z"/>
  <path class="cls-1" d="m232.56,134.04c-.38-3.2-.76-6.4-1.14-9.6.2-.04.4-.07.61-.11.37,3.21.74,6.43,1.11,9.64l-.57.07Z"/>
  <path class="cls-1" d="m170.86,155.07c1.82-.48,2.24,1.38,3.17,3.33-1.97-.11-2.31-2.15-3.17-3.33Z"/>
  <path class="cls-1" d="m192.52,29.77c.33-1.49.59-2.61.91-4.04,1.39,2.09,1.17,3.11-.91,4.04Z"/>
  <path class="cls-2" d="m210.19,179.8c-.76.47-1.49,1.05-2.28,1.35-.3.11-.74-.42-1.11-.65.26-.36.49-.97.79-1.04.85-.19,1.72-.17,2.59-.23,0,.19.01.38.02.57Z"/>
</svg>